<svg width="154" height="81" viewBox="0 0 154 81" fill="none" xmlns="http://www.w3.org/2000/svg">
<g clip-path="url(#clip0)">
<path d="M154 74.4401V79.6818H136.812V59.4058H153.634V64.6475H143.964V67.1668H151.765V72.0021H143.964V74.3995L154 74.4401ZM127.548 79.6818L123.972 72.9367H122.022V79.6818H115.033V59.4058H126.004C128.686 59.4058 130.758 59.9747 132.139 61.1124C133.521 62.2501 134.212 63.9567 134.212 66.1916C134.212 69.1578 132.993 71.1488 130.555 72.1646L135.349 79.6412L127.548 79.6818ZM126.491 64.9319C126.126 64.6475 125.475 64.485 124.582 64.485H122.022V68.2232H124.582C125.475 68.2232 126.126 68.1013 126.491 67.8169C127.223 67.0449 127.223 65.7852 126.491 64.9319ZM102.436 80.0069C95.9351 80.0069 92.6438 77 92.6438 70.9863V59.4464H99.8359V71.5145C99.7952 72.3272 99.9984 73.1805 100.486 73.8306C100.974 74.3588 101.705 74.6839 102.436 74.6026C103.168 74.6433 103.899 74.3588 104.387 73.8306C104.874 73.1805 105.118 72.3272 105.078 71.5145V59.4058H112.229V70.9456C112.229 77 108.978 80.0069 102.436 80.0069ZM84.4765 79.6818H77.3251V64.6475H70.9863V59.4058H90.8153V64.6475H84.5172L84.4765 79.6818ZM59.3245 80.0069C52.7826 80.0069 49.5319 77 49.5319 70.9863V59.4464H56.724V71.5145C56.6834 72.3272 56.8865 73.1805 57.3741 73.8306C57.8617 74.3588 58.5931 74.6839 59.3245 74.6026C60.0559 74.6433 60.7873 74.3588 61.2749 73.8306C61.7625 73.1805 62.0063 72.3272 61.9657 71.5145V59.4058H69.1172V70.9456C69.1172 77 65.8665 80.0069 59.3245 80.0069ZM38.1546 67.4918H45.9562V72.7335H38.1546V79.6818H31.0032V59.4058H47.7847V64.6475H38.1546V67.4918ZM84.5984 20.4792H76.6343L72.896 12.9214L71.2301 15.1968V20.4792H64.1193V0.325068H71.2301V7.84222L76.4718 0.325068H84.0296L77.8533 8.32982L84.5984 20.4792ZM53.1483 15.4406C54.1235 15.4406 54.8142 15.2375 55.2206 14.7905C55.7082 14.181 55.9926 13.4496 56.0332 12.6776L62.3314 14.3029C61.2749 18.61 58.1868 20.7636 53.0264 20.7636C51.1166 20.8042 49.2475 20.3979 47.5409 19.5446C46.0375 18.7319 44.7778 17.5129 44.0058 15.9689C43.1525 14.2216 42.7055 12.3119 42.7868 10.3615C42.7462 8.41108 43.1525 6.50132 44.0058 4.75409C44.7778 3.25066 46.0375 1.99103 47.5409 1.17837C49.2475 0.325068 51.1166 -0.0812647 53.0264 -0.0406315C55.1393 -0.121898 57.2522 0.406334 59.0807 1.4628C60.7467 2.47863 61.8844 4.14459 62.2095 6.05436L56.1145 8.45172C55.952 7.19209 55.6675 6.37942 55.2206 5.93246C54.6517 5.44486 53.961 5.24169 53.2296 5.28232C52.2544 5.24169 51.3604 5.68866 50.8322 6.50132C50.304 7.31399 50.0195 8.57362 50.0195 10.3208C50.0195 12.0681 50.2633 13.3277 50.7916 14.1404C51.3198 15.0343 52.2137 15.4813 53.1483 15.4406ZM35.7166 20.4792L34.7821 16.619H29.3372L28.4026 20.4792H21.3325L27.8744 0.325068H36.448L43.0306 20.4792H35.7166ZM32.1409 5.48549H32.0596L31.247 8.89868L30.4343 12.19H33.7662L32.1409 5.48549ZM12.962 12.962H7.43588V20.4792H0.325066V0.325068H7.43588V7.72032H12.962V0.325068H20.0728V20.4792H12.962V12.962ZM30.6375 45.1842V50.5478C30.6375 50.5478 20.0322 51.0354 20.5604 39.658C20.6417 29.0528 30.5968 29.7842 30.5968 29.7842V34.9852C30.5968 34.9852 27.6712 34.7414 27.7525 40.0644C27.8338 45.3873 30.028 45.0623 30.6375 45.1842ZM69.5641 34.7821V29.4185C69.5641 29.4185 79.5599 28.4839 79.6818 39.9831C79.6005 50.7916 69.6048 50.2227 69.6048 50.2227V44.981C69.6048 44.981 72.6929 44.981 72.4491 39.5362C72.2053 34.0913 69.5641 34.7821 69.5641 34.7821ZM124.297 50.0195H116.536L112.96 43.2744H111.01V50.0195H104.021V29.7435H114.992C117.674 29.7435 119.746 30.3124 121.128 31.4501C122.509 32.5879 123.2 34.2945 123.2 36.5293C123.2 39.4955 121.981 41.4865 119.543 42.5024L124.297 50.0195ZM115.439 35.2697C115.073 34.9852 114.423 34.8227 113.529 34.8227H110.969V38.561H113.529C114.423 38.561 115.073 38.4391 115.439 38.1546C116.211 37.342 116.211 36.0823 115.439 35.2697ZM91.5873 50.304C85.0454 50.304 81.7947 47.2971 81.7947 41.2834V29.7435H88.9868V41.8522C88.9462 42.6649 89.1493 43.5182 89.6369 44.1683C90.1245 44.6966 90.8559 45.0216 91.5873 44.9404C92.3187 44.981 93.0501 44.6966 93.5377 44.1683C94.0253 43.5182 94.2691 42.6649 94.2285 41.8522V29.7435H101.38V41.2834C101.38 47.2971 98.1293 50.304 91.5873 50.304ZM14.2216 50.0195H7.07018V42.99L0 29.7435H7.11082L9.26438 34.3757L10.6865 38.0734L12.1087 34.3757L14.2623 29.7435H21.2918L14.2216 42.99V50.0195Z" fill="#2D3037"/>
<path d="M45.9562 29.581H37.3419V50.7103H45.9562V29.581Z" fill="#2D3037"/>
<path d="M54.5705 29.581H45.9562V50.7103H54.5705V29.581Z" fill="#FFF310"/>
<path d="M63.2253 29.581H54.6111V50.7103H63.2253V29.581Z" fill="#CC0A0A"/>
</g>
<defs>
<clipPath id="clip0">
<rect width="154" height="80.0069" fill="white"/>
</clipPath>
</defs>
</svg>
