<svg width="22" height="21" viewBox="0 0 22 21" fill="none" xmlns="http://www.w3.org/2000/svg">
<path d="M15.3463 6.46143C17.06 6.46143 18.7035 7.16838 19.9153 8.42676C21.1271 9.68514 21.8078 11.3919 21.8078 13.1715V20.9999H17.5001V13.1715C17.5001 12.5783 17.2732 12.0094 16.8693 11.5899C16.4654 11.1704 15.9175 10.9348 15.3463 10.9348C14.7751 10.9348 14.2272 11.1704 13.8233 11.5899C13.4194 12.0094 13.1925 12.5783 13.1925 13.1715V20.9999H8.88477V13.1715C8.88477 11.3919 9.56553 9.68514 10.7773 8.42676C11.9891 7.16838 13.6326 6.46143 15.3463 6.46143Z" fill="#4A50BB"/>
<path d="M4.03846 8.0769H0V21H4.03846V8.0769Z" fill="#4A50BB"/>
<path d="M2.01923 4.03846C3.13442 4.03846 4.03846 3.13442 4.03846 2.01923C4.03846 0.90404 3.13442 0 2.01923 0C0.90404 0 0 0.90404 0 2.01923C0 3.13442 0.90404 4.03846 2.01923 4.03846Z" fill="#4A50BB"/>
</svg>
