<svg width="28" height="22" viewBox="0 0 28 22" fill="none" xmlns="http://www.w3.org/2000/svg">
<path d="M28 0.0123289C26.7812 0.840504 25.4318 1.47392 24.0036 1.8882C23.2371 1.03917 22.2184 0.437393 21.0853 0.16427C19.9522 -0.108854 18.7594 -0.0401518 17.6681 0.361085C16.5768 0.762322 15.6398 1.47673 14.9838 2.4077C14.3278 3.33866 13.9843 4.44126 14 5.56637V6.79243C11.7634 6.8483 9.54708 6.37044 7.54856 5.4014C5.55004 4.43237 3.83131 3.00224 2.54545 1.23839C2.54545 1.23839 -2.54545 12.2729 8.90909 17.1771C6.28794 18.8911 3.16547 19.7506 0 19.6293C11.4545 25.7596 25.4545 19.6293 25.4545 5.52959C25.4534 5.18808 25.4193 4.84741 25.3527 4.51196C26.6517 3.27793 27.5683 1.71988 28 0.0123289Z" fill="#4A50BB"/>
</svg>
