<svg width="25" height="27" viewBox="0 0 25 27" fill="none" xmlns="http://www.w3.org/2000/svg">
<path d="M9.25641 22.4331C3.35897 24.2166 3.35897 19.4607 1 18.8662L9.25641 22.4331ZM17.5128 26V21.3987C17.5571 20.8318 17.4811 20.2619 17.2899 19.7268C17.0988 19.1918 16.7968 18.7039 16.4041 18.2955C20.1077 17.8794 24 16.4645 24 9.97283C23.9997 8.31284 23.3663 6.71651 22.2308 5.51423C22.7684 4.06193 22.7304 2.45664 22.1246 1.03186C22.1246 1.03186 20.7328 0.61572 17.5128 2.79152C14.8094 2.05296 11.9598 2.05296 9.25641 2.79152C6.03641 0.61572 4.64462 1.03186 4.64462 1.03186C4.0388 2.45664 4.00079 4.06193 4.53846 5.51423C3.39451 6.72542 2.76041 8.33618 2.76923 10.0085C2.76923 16.4527 6.66154 17.8675 10.3651 18.3312C9.97707 18.7354 9.6778 19.2175 9.48677 19.746C9.29575 20.2745 9.21726 20.8376 9.25641 21.3987V26" fill="#4A50BB"/>
<path d="M9.25641 22.4331L9.54587 23.3903L9.653 21.5151L9.25641 22.4331ZM1 18.8662L1.24437 17.8966C0.739049 17.7692 0.220645 18.0513 0.0530964 18.5447C-0.114452 19.0382 0.125029 19.5776 0.603413 19.7842L1 18.8662ZM17.5128 26V27H18.5128V26H17.5128ZM17.5128 21.3987L16.5159 21.3209L16.5128 21.3598V21.3987H17.5128ZM16.4041 18.2955L16.2924 17.3018L14.2786 17.5281L15.6833 18.9887L16.4041 18.2955ZM24 9.97283H25V9.97265L24 9.97283ZM22.2308 5.51423L21.293 5.16704L21.0774 5.74939L21.5038 6.20086L22.2308 5.51423ZM22.1246 1.03186L23.0449 0.640563C22.9285 0.366748 22.6961 0.158998 22.4111 0.0737642L22.1246 1.03186ZM17.5128 2.79152L17.2493 3.75616L17.6922 3.87718L18.0727 3.62009L17.5128 2.79152ZM9.25641 2.79152L8.69653 3.62009L9.077 3.87718L9.51995 3.75616L9.25641 2.79152ZM4.64462 1.03186L4.35815 0.0737643L3.90814 0.208315L3.72435 0.640563L4.64462 1.03186ZM4.53846 5.51423L5.26546 6.20087L5.69186 5.74941L5.47626 5.16704L4.53846 5.51423ZM2.76923 10.0085H3.76924L3.76922 10.0032L2.76923 10.0085ZM10.3651 18.3312L11.0865 19.0238L12.4663 17.5865L10.4894 17.339L10.3651 18.3312ZM9.25641 21.3987H10.2564V21.3639L10.254 21.3291L9.25641 21.3987ZM9.25641 26H8.25641V27H9.25641V26ZM8.96695 21.4759C7.607 21.8872 6.68671 21.8911 6.03971 21.7385C5.40537 21.5889 4.93678 21.2661 4.51121 20.8371C4.29291 20.6171 4.0899 20.3731 3.87798 20.1055C3.67834 19.8534 3.44503 19.5463 3.21973 19.2797C2.76532 18.742 2.15151 18.1252 1.24437 17.8966L0.755633 19.8359C1.02798 19.9046 1.29879 20.1052 1.69213 20.5706C1.89071 20.8056 2.07206 21.0466 2.31012 21.3472C2.5359 21.6323 2.79363 21.9456 3.09135 22.2457C3.69783 22.857 4.48245 23.426 5.58048 23.6851C6.66585 23.9411 7.9571 23.8708 9.54587 23.3903L8.96695 21.4759ZM0.603413 19.7842L8.85982 23.3511L9.653 21.5151L1.39659 17.9482L0.603413 19.7842ZM18.5128 26V21.3987H16.5128V26H18.5128ZM18.5098 21.4765C18.565 20.7693 18.4702 20.0582 18.2316 19.3904L16.3482 20.0633C16.4919 20.4655 16.5491 20.8943 16.5159 21.3209L18.5098 21.4765ZM18.2316 19.3904C17.993 18.7225 17.6159 18.1129 17.1249 17.6024L15.6833 18.9887C15.9777 19.2948 16.2045 19.661 16.3482 20.0633L18.2316 19.3904ZM16.5158 19.2893C18.4247 19.0748 20.5698 18.589 22.2375 17.1754C23.9524 15.7218 25 13.4323 25 9.97283H23C23 13.0051 22.1014 14.6689 20.9443 15.6497C19.74 16.6705 18.0871 17.1002 16.2924 17.3018L16.5158 19.2893ZM25 9.97265C24.9997 8.05847 24.2693 6.21625 22.9578 4.82761L21.5038 6.20086C22.4632 7.21676 22.9997 8.56721 23 9.97301L25 9.97265ZM23.1686 5.86142C23.7948 4.16981 23.7506 2.30032 23.0449 0.640563L21.2043 1.42315C21.7103 2.61297 21.7421 3.95404 21.293 5.16704L23.1686 5.86142ZM22.1246 1.03186C22.4111 0.0737642 22.4101 0.0734735 22.4091 0.0731822C22.4088 0.0730832 22.4078 0.0727915 22.4071 0.0725943C22.4058 0.0722006 22.4044 0.071803 22.4031 0.0714019C22.4003 0.0705996 22.3974 0.069783 22.3945 0.0689537C22.3886 0.067295 22.3823 0.0655857 22.3757 0.0638377C22.3625 0.0603415 22.3478 0.0566934 22.3316 0.0529897C22.2993 0.0455794 22.2612 0.0379651 22.2172 0.0309016C22.1293 0.0167575 22.0186 0.00493354 21.8846 0.00121617C21.616 -0.00623393 21.2587 0.0189938 20.8078 0.1199C19.9079 0.321296 18.6404 0.822726 16.9529 1.96294L18.0727 3.62009C19.6053 2.58451 20.6437 2.20611 21.2446 2.07163C21.5441 2.00459 21.736 1.99787 21.8291 2.00045C21.8759 2.00175 21.8991 2.00543 21.8998 2.00555C21.9002 2.00561 21.8952 2.00481 21.8848 2.00244C21.8796 2.00125 21.8731 1.99967 21.8653 1.99762C21.8614 1.99659 21.8572 1.99545 21.8527 1.99417C21.8504 1.99353 21.8481 1.99286 21.8457 1.99216C21.8445 1.99181 21.8432 1.99145 21.842 1.99108C21.8413 1.9909 21.8404 1.99061 21.8401 1.99052C21.8391 1.99024 21.8382 1.98995 22.1246 1.03186ZM17.7764 1.82687C14.9005 1.04118 11.8688 1.04118 8.99287 1.82687L9.51995 3.75616C12.0508 3.06474 14.7184 3.06474 17.2493 3.75616L17.7764 1.82687ZM9.81629 1.96294C8.12886 0.822726 6.86135 0.321296 5.9614 0.1199C5.5105 0.0189938 5.15319 -0.00623393 4.88466 0.00121617C4.75067 0.00493354 4.63997 0.0167575 4.55198 0.0309016C4.50805 0.0379651 4.46995 0.0455794 4.43762 0.0529898C4.42146 0.0566934 4.40676 0.0603415 4.39352 0.0638378C4.38689 0.0655857 4.38064 0.0672951 4.37474 0.0689538C4.37179 0.0697831 4.36894 0.0705997 4.36617 0.071402C4.36479 0.0718031 4.36343 0.0722007 4.3621 0.0725944C4.36143 0.0727915 4.36044 0.0730832 4.36011 0.0731823C4.35913 0.0734736 4.35815 0.0737643 4.64462 1.03186C4.93108 1.98995 4.93011 1.99024 4.92916 1.99052C4.92884 1.99061 4.92789 1.9909 4.92726 1.99108C4.92601 1.99145 4.92478 1.99181 4.92357 1.99216C4.92114 1.99286 4.9188 1.99353 4.91653 1.99417C4.912 1.99545 4.90779 1.99659 4.9039 1.99762C4.89611 1.99967 4.88962 2.00125 4.88444 2.00244C4.87407 2.00481 4.86902 2.00561 4.86943 2.00555C4.87014 2.00543 4.89332 2.00175 4.94013 2.00045C5.03319 1.99787 5.22508 2.00459 5.52463 2.07163C6.12558 2.20611 7.16396 2.58451 8.69653 3.62009L9.81629 1.96294ZM3.72435 0.640563C3.01863 2.30032 2.97439 4.16981 3.60067 5.86142L5.47626 5.16704C5.02718 3.95404 5.05898 2.61297 5.56488 1.42315L3.72435 0.640563ZM3.81146 4.82759C2.49018 6.22653 1.75907 8.08539 1.76924 10.0138L3.76922 10.0032C3.76175 8.58698 4.29883 7.22432 5.26546 6.20087L3.81146 4.82759ZM1.76923 10.0085C1.76923 13.4474 2.81878 15.7234 4.53174 17.1754C6.19593 18.586 8.33696 19.0851 10.2409 19.3235L10.4894 17.339C8.6897 17.1136 7.03279 16.6735 5.82492 15.6497C4.66583 14.6672 3.76923 13.0138 3.76923 10.0085H1.76923ZM9.64375 17.6387C9.15851 18.1441 8.78475 18.7464 8.54632 19.4061L10.4272 20.0859C10.5708 19.6886 10.7956 19.3267 11.0865 19.0238L9.64375 17.6387ZM8.54632 19.4061C8.30789 20.0657 8.21 20.7684 8.25884 21.4683L10.254 21.3291C10.2245 20.9069 10.2836 20.4832 10.4272 20.0859L8.54632 19.4061ZM8.25641 21.3987V26H10.2564V21.3987H8.25641ZM9.25641 27H17.5128V25H9.25641V27Z" fill="#4A50BB"/>
</svg>
