<svg width="27" height="26" viewBox="0 0 27 26" fill="none" xmlns="http://www.w3.org/2000/svg">
<path d="M19 8C21.1217 8 23.1566 8.87527 24.6569 10.4333C26.1571 11.9913 27 14.1044 27 16.3077V26H21.6667V16.3077C21.6667 15.5732 21.3857 14.8689 20.8856 14.3496C20.3855 13.8302 19.7072 13.5385 19 13.5385C18.2928 13.5385 17.6145 13.8302 17.1144 14.3496C16.6143 14.8689 16.3333 15.5732 16.3333 16.3077V26H11V16.3077C11 14.1044 11.8429 11.9913 13.3431 10.4333C14.8434 8.87527 16.8783 8 19 8Z" fill="#4A50BB"/>
<path d="M5 10H0V26H5V10Z" fill="#4A50BB"/>
<path d="M2.5 5C3.88071 5 5 3.88071 5 2.5C5 1.11929 3.88071 0 2.5 0C1.11929 0 0 1.11929 0 2.5C0 3.88071 1.11929 5 2.5 5Z" fill="#4A50BB"/>
</svg>
