<svg width="28" height="28" viewBox="0 0 28 28" fill="none" xmlns="http://www.w3.org/2000/svg">
<path d="M25.5391 4.4082H2.46094C1.10398 4.4082 0 5.51218 0 6.86914V21.1307C0 22.4876 1.10398 23.5916 2.46094 23.5916H25.5391C26.896 23.5916 28 22.4876 28 21.1307V6.86914C28 5.51218 26.896 4.4082 25.5391 4.4082ZM25.2179 6.04883L24.8894 6.32232L14.9764 14.5769C14.4106 15.048 13.5893 15.048 13.0236 14.5769L3.11057 6.32232L2.78212 6.04883H25.2179ZM1.64062 7.23325L9.71753 13.9589L1.64062 19.3343V7.23325ZM25.5391 21.951H2.46094C2.06456 21.951 1.73305 21.6683 1.65709 21.2941L11.033 15.0542L11.9738 15.8377C12.5608 16.3265 13.2805 16.5709 14.0001 16.5709C14.7196 16.5709 15.4392 16.3265 16.0263 15.8377L16.9671 15.0542L26.343 21.2941C26.267 21.6684 25.9354 21.951 25.5391 21.951ZM26.3594 19.3343L18.2825 13.9589L26.3594 7.23325V19.3343Z" fill="#4A50BB"/>
</svg>
