<svg width="32" height="26" viewBox="0 0 32 26" fill="none" xmlns="http://www.w3.org/2000/svg">
<path d="M32 0.0145705C30.6071 0.993322 29.0649 1.74191 27.4327 2.23151C26.5567 1.22811 25.3925 0.516919 24.0975 0.194137C22.8025 -0.128646 21.4393 -0.0474521 20.1921 0.426737C18.945 0.900926 17.8741 1.74523 17.1243 2.84546C16.3746 3.94569 15.9821 5.24877 16 6.57844V8.02742C13.4438 8.09345 10.9109 7.5287 8.62692 6.38347C6.3429 5.23825 4.37864 3.5481 2.90909 1.46355C2.90909 1.46355 -2.90909 14.5043 10.1818 20.3003C7.18622 22.3259 3.61768 23.3416 0 23.1982C13.0909 30.4431 29.0909 23.1982 29.0909 6.53497C29.0896 6.13136 29.0506 5.72875 28.9745 5.33232C30.4591 3.87391 31.5067 2.03258 32 0.0145705Z" fill="#4A50BB"/>
</svg>
