<svg id="svg" version="1.1" xmlns="http://www.w3.org/2000/svg" xmlns:xlink="http://www.w3.org/1999/xlink" width="400" height="228.7153652392947" viewBox="0, 0, 400,228.7153652392947"><g id="svgg"><path id="path0" d="M134.325 148.741 L 134.325 161.556 137.300 161.556 L 140.275 161.556 140.275 148.741 L 140.275 135.927 137.300 135.927 L 134.325 135.927 134.325 148.741 M154.462 138.902 L 154.462 141.876 151.716 141.876 C 150.038 141.876,148.970 141.965,148.970 142.105 C 148.970 142.231,148.654 142.334,148.267 142.334 C 147.881 142.334,147.429 142.463,147.263 142.620 C 147.097 142.777,146.686 143.106,146.350 143.350 C 145.230 144.161,144.851 144.558,144.851 144.922 C 144.851 145.120,144.748 145.346,144.622 145.423 C 144.497 145.501,144.394 145.765,144.394 146.009 C 144.394 146.253,144.291 146.453,144.165 146.453 C 144.039 146.453,143.936 146.905,143.936 147.458 C 143.936 148.141,143.826 148.506,143.593 148.595 C 143.309 148.704,143.249 149.308,143.249 152.059 C 143.249 154.811,143.309 155.415,143.593 155.524 C 143.816 155.610,143.936 155.965,143.936 156.546 C 143.936 157.036,144.039 157.437,144.165 157.437 C 144.291 157.437,144.394 157.695,144.394 158.009 C 144.394 158.324,144.497 158.581,144.622 158.581 C 144.748 158.581,144.851 158.749,144.851 158.955 C 144.851 159.363,145.870 160.338,146.510 160.543 C 146.731 160.614,146.911 160.768,146.911 160.885 C 146.911 161.002,147.117 161.098,147.368 161.098 C 147.620 161.098,147.826 161.201,147.826 161.327 C 147.826 161.453,148.186 161.556,148.627 161.556 C 149.068 161.556,149.428 161.659,149.428 161.785 C 149.428 161.927,150.648 162.014,152.632 162.014 C 154.615 162.014,155.835 161.927,155.835 161.785 C 155.835 161.656,156.479 161.556,157.309 161.556 C 158.120 161.556,158.847 161.453,158.924 161.327 C 159.002 161.201,159.369 161.098,159.739 161.098 L 160.412 161.098 160.412 148.513 L 160.412 135.927 157.437 135.927 L 154.462 135.927 154.462 138.902 M185.736 136.537 C 185.652 136.621,185.584 142.285,185.584 149.123 L 185.584 161.556 187.643 161.556 L 189.703 161.556 189.703 154.233 C 189.703 147.063,189.712 146.911,190.160 146.911 C 190.412 146.911,190.618 146.808,190.618 146.682 C 190.618 146.556,191.127 146.453,191.749 146.453 C 192.370 146.453,192.943 146.350,193.021 146.224 C 193.098 146.098,193.413 145.995,193.721 145.995 C 194.028 145.995,194.279 146.098,194.279 146.224 C 194.279 146.350,194.435 146.453,194.625 146.453 C 195.214 146.453,196.339 147.708,196.339 148.366 C 196.339 148.698,196.442 148.970,196.568 148.970 C 196.715 148.970,196.796 151.220,196.796 155.263 L 196.796 161.556 198.513 161.556 L 200.229 161.556 200.229 154.005 C 200.229 149.123,200.148 146.453,200.000 146.453 C 199.874 146.453,199.768 146.170,199.764 145.824 C 199.756 145.173,199.307 144.394,198.938 144.394 C 198.823 144.394,198.580 144.188,198.398 143.936 C 198.217 143.684,197.896 143.478,197.686 143.478 C 197.475 143.478,197.244 143.324,197.171 143.135 C 197.094 142.934,196.751 142.792,196.346 142.792 C 195.964 142.792,195.652 142.689,195.652 142.563 C 195.652 142.281,192.746 142.253,192.639 142.534 C 192.597 142.644,191.919 142.780,191.133 142.835 L 189.703 142.935 189.703 139.660 L 189.703 136.384 187.796 136.384 C 186.747 136.384,185.820 136.453,185.736 136.537 M287.414 148.970 L 287.414 161.556 289.130 161.556 L 290.847 161.556 290.847 154.233 L 290.847 146.911 291.419 146.911 C 291.733 146.911,291.991 146.808,291.991 146.682 C 291.991 146.556,292.557 146.453,293.249 146.453 C 293.942 146.453,294.508 146.350,294.508 146.224 C 294.508 146.098,294.714 145.995,294.966 145.995 C 295.217 145.995,295.423 146.098,295.423 146.224 C 295.423 146.350,295.740 146.453,296.126 146.453 C 296.890 146.453,297.483 146.896,297.483 147.466 C 297.483 147.664,297.584 147.826,297.708 147.826 C 297.850 147.826,297.956 150.357,297.994 154.634 L 298.055 161.442 300.057 161.508 L 302.059 161.574 302.059 154.471 C 302.059 149.889,301.978 147.368,301.831 147.368 C 301.705 147.368,301.602 147.005,301.602 146.560 C 301.602 146.053,301.474 145.703,301.259 145.621 C 301.070 145.548,300.915 145.345,300.915 145.170 C 300.915 144.995,300.812 144.851,300.686 144.851 C 300.561 144.851,300.458 144.645,300.458 144.394 C 300.458 144.133,300.305 143.936,300.104 143.936 C 299.910 143.936,299.493 143.678,299.178 143.364 C 298.789 142.974,298.354 142.792,297.816 142.792 C 297.381 142.792,297.025 142.689,297.025 142.563 C 297.025 142.434,296.377 142.334,295.538 142.334 C 294.699 142.334,294.050 142.434,294.050 142.563 C 294.050 142.689,293.532 142.792,292.899 142.792 C 292.087 142.792,291.709 142.893,291.616 143.135 C 291.109 144.457,290.847 143.365,290.847 139.931 L 290.847 136.384 289.130 136.384 L 287.414 136.384 287.414 148.970 M339.817 148.979 L 339.817 161.574 341.819 161.508 L 343.822 161.442 343.885 149.428 C 343.961 134.935,344.198 136.384,341.758 136.384 L 339.817 136.384 339.817 148.979 M68.275 138.101 C 68.177 138.356,67.770 138.444,66.680 138.444 C 65.858 138.444,65.217 138.544,65.217 138.673 C 65.217 138.799,64.921 138.902,64.559 138.902 C 63.847 138.902,63.616 139.443,63.616 141.104 L 63.616 141.876 62.278 141.876 C 60.480 141.876,60.183 142.214,60.183 144.256 C 60.183 145.909,60.462 146.453,61.311 146.453 C 61.572 146.453,61.785 146.556,61.785 146.682 C 61.785 146.808,62.184 146.911,62.671 146.911 L 63.557 146.911 63.657 152.903 C 63.730 157.255,63.832 158.920,64.030 158.986 C 64.180 159.036,64.302 159.274,64.302 159.516 C 64.302 159.757,64.405 159.954,64.531 159.954 C 64.657 159.954,64.760 160.170,64.760 160.433 C 64.760 160.720,64.944 160.960,65.217 161.032 C 65.469 161.098,65.675 161.243,65.675 161.354 C 65.675 161.465,65.932 161.556,66.247 161.556 C 66.562 161.556,66.819 161.659,66.819 161.785 C 66.819 161.925,67.887 162.014,69.565 162.014 C 71.243 162.014,72.311 161.925,72.311 161.785 C 72.311 161.659,72.517 161.556,72.769 161.556 C 73.196 161.556,73.227 161.404,73.227 159.268 L 73.227 156.979 71.739 156.979 C 70.404 156.979,70.252 156.932,70.252 156.522 C 70.252 156.270,70.149 156.064,70.023 156.064 C 69.878 156.064,69.794 154.386,69.794 151.487 L 69.794 146.911 71.510 146.911 L 73.227 146.911 73.227 144.720 C 73.227 142.043,73.107 141.876,71.183 141.876 L 69.794 141.876 69.794 139.956 C 69.794 138.416,69.722 138.008,69.432 137.896 C 68.830 137.665,68.414 137.739,68.275 138.101 M31.693 142.105 C 31.616 142.231,31.095 142.334,30.536 142.334 L 29.519 142.334 29.519 144.851 L 29.519 147.368 33.197 147.368 C 37.000 147.368,37.529 147.490,37.529 148.368 C 37.529 148.559,37.632 148.778,37.757 148.856 C 38.376 149.238,37.807 149.428,36.041 149.428 C 34.897 149.428,34.096 149.522,34.096 149.657 C 34.096 149.783,33.541 149.886,32.862 149.886 C 31.976 149.886,31.591 149.982,31.496 150.229 C 31.424 150.418,31.155 150.572,30.900 150.572 C 30.644 150.572,30.435 150.675,30.435 150.801 C 30.435 150.927,30.273 151.030,30.075 151.030 C 29.623 151.030,29.062 151.577,29.062 152.019 C 29.062 152.203,28.907 152.413,28.719 152.485 C 28.530 152.558,28.375 152.826,28.375 153.082 C 28.375 153.338,28.272 153.547,28.146 153.547 C 28.010 153.547,27.918 154.424,27.918 155.721 C 27.918 157.018,28.010 157.895,28.146 157.895 C 28.272 157.895,28.375 158.189,28.375 158.549 C 28.375 158.980,28.571 159.350,28.947 159.633 C 29.262 159.870,29.519 160.155,29.519 160.268 C 29.519 160.684,30.797 161.556,31.407 161.556 C 31.753 161.556,32.037 161.659,32.037 161.785 C 32.037 162.106,36.550 162.089,36.657 161.767 C 36.712 161.603,37.983 161.528,40.452 161.544 L 44.165 161.567 44.165 154.117 C 44.165 147.706,44.117 146.649,43.822 146.536 C 43.610 146.455,43.478 146.107,43.478 145.628 C 43.478 145.201,43.375 144.851,43.249 144.851 C 43.124 144.851,43.021 144.689,43.021 144.492 C 43.021 144.075,42.485 143.478,42.111 143.478 C 41.970 143.478,41.616 143.221,41.324 142.906 C 41.023 142.581,40.540 142.334,40.205 142.334 C 39.880 142.334,39.551 142.231,39.474 142.105 C 39.389 141.968,37.836 141.876,35.584 141.876 C 33.331 141.876,31.778 141.968,31.693 142.105 M47.883 142.219 C 47.664 142.467,47.597 144.771,47.597 152.050 L 47.597 161.556 50.455 161.556 C 54.571 161.556,54.233 162.205,54.233 154.297 C 54.233 147.979,54.244 147.826,54.691 147.826 C 54.943 147.826,55.149 147.723,55.149 147.597 C 55.149 147.471,55.715 147.368,56.407 147.368 C 57.100 147.368,57.666 147.265,57.666 147.140 C 57.666 147.014,57.872 146.911,58.124 146.911 C 58.553 146.911,58.581 146.758,58.581 144.394 L 58.581 141.876 56.865 141.876 C 55.873 141.876,55.149 141.973,55.149 142.105 C 55.149 142.231,54.848 142.334,54.481 142.334 C 54.114 142.334,53.762 142.463,53.698 142.620 C 53.635 142.777,53.575 142.674,53.565 142.391 C 53.542 141.747,48.435 141.592,47.883 142.219 M80.892 142.105 C 80.815 142.231,80.551 142.334,80.307 142.334 C 80.063 142.334,79.863 142.437,79.863 142.563 C 79.863 142.689,79.657 142.792,79.405 142.792 C 79.151 142.792,78.947 142.944,78.947 143.135 C 78.947 143.324,78.841 143.478,78.711 143.478 C 78.403 143.478,76.888 144.994,76.888 145.301 C 76.888 145.431,76.785 145.538,76.659 145.538 C 76.533 145.538,76.430 145.847,76.430 146.224 C 76.430 146.682,76.316 146.911,76.087 146.911 C 75.833 146.911,75.744 147.178,75.744 147.941 C 75.744 148.507,75.641 148.970,75.515 148.970 C 75.374 148.970,75.286 150.114,75.286 151.945 C 75.286 153.776,75.374 154.920,75.515 154.920 C 75.641 154.920,75.744 155.438,75.744 156.071 C 75.744 156.884,75.845 157.261,76.087 157.354 C 76.276 157.427,76.430 157.682,76.430 157.922 C 76.430 158.447,78.996 161.098,79.504 161.098 C 79.701 161.098,79.863 161.201,79.863 161.327 C 79.863 161.453,80.223 161.556,80.664 161.556 C 81.104 161.556,81.465 161.659,81.465 161.785 C 81.465 161.927,82.761 162.014,84.897 162.014 C 87.033 162.014,88.330 161.927,88.330 161.785 C 88.330 161.659,88.896 161.556,89.588 161.556 C 90.280 161.556,90.847 161.453,90.847 161.327 C 90.847 161.201,91.104 161.098,91.419 161.098 L 91.991 161.098 91.991 158.810 L 91.991 156.522 87.643 156.522 C 84.897 156.522,83.295 156.437,83.295 156.293 C 83.295 156.167,83.089 156.064,82.838 156.064 C 82.537 156.064,82.380 155.912,82.380 155.620 C 82.380 155.376,82.277 155.112,82.151 155.034 C 82.025 154.957,81.922 154.693,81.922 154.449 C 81.922 154.022,82.127 154.005,87.087 154.005 C 91.259 154.005,92.315 153.942,92.579 153.678 C 92.966 153.290,93.056 149.428,92.677 149.428 C 92.551 149.428,92.449 148.862,92.449 148.169 C 92.449 147.477,92.346 146.911,92.220 146.911 C 92.094 146.911,91.991 146.649,91.991 146.330 C 91.991 145.670,89.305 142.792,88.689 142.792 C 88.491 142.792,88.330 142.689,88.330 142.563 C 88.330 142.437,88.124 142.334,87.872 142.334 C 87.620 142.334,87.414 142.231,87.414 142.105 C 87.414 141.964,86.198 141.876,84.224 141.876 C 82.344 141.876,80.976 141.970,80.892 142.105 M94.336 142.219 C 93.997 142.604,93.950 144.394,94.279 144.394 C 94.405 144.394,94.508 144.754,94.508 145.195 C 94.508 145.635,94.611 145.995,94.737 145.995 C 94.863 145.995,94.966 146.407,94.966 146.911 C 94.966 147.414,95.069 147.826,95.195 147.826 C 95.320 147.826,95.423 148.289,95.423 148.856 C 95.423 149.422,95.526 149.886,95.652 149.886 C 95.778 149.886,95.881 150.198,95.881 150.579 C 95.881 150.985,96.024 151.328,96.224 151.405 C 96.457 151.494,96.568 151.859,96.568 152.542 C 96.568 153.095,96.670 153.547,96.796 153.547 C 96.922 153.547,97.025 153.959,97.025 154.462 C 97.025 154.966,97.128 155.378,97.254 155.378 C 97.380 155.378,97.483 155.738,97.483 156.178 C 97.483 156.619,97.586 156.979,97.712 156.979 C 97.838 156.979,97.941 157.385,97.941 157.881 C 97.941 158.377,98.043 158.847,98.169 158.924 C 98.295 159.002,98.398 159.266,98.398 159.510 C 98.398 159.754,98.553 159.954,98.741 159.954 C 98.930 159.954,99.085 160.062,99.085 160.193 C 99.085 160.555,100.160 161.556,100.548 161.556 C 100.735 161.556,100.952 161.659,101.030 161.785 C 101.108 161.911,102.138 162.014,103.332 162.014 C 104.619 162.014,105.492 161.921,105.492 161.785 C 105.492 161.659,105.749 161.556,106.064 161.556 C 106.379 161.556,106.636 161.465,106.636 161.354 C 106.636 161.243,106.842 161.098,107.094 161.032 C 107.346 160.966,107.551 160.720,107.551 160.484 C 107.551 160.248,107.757 159.907,108.009 159.725 C 108.344 159.484,108.467 159.133,108.467 158.416 C 108.467 157.698,108.558 157.437,108.810 157.437 C 109.037 157.437,109.153 157.210,109.153 156.764 C 109.153 156.394,109.256 156.027,109.382 155.950 C 109.508 155.872,109.611 155.402,109.611 154.906 C 109.611 154.410,109.714 154.005,109.840 154.005 C 109.966 154.005,110.069 153.541,110.069 152.975 C 110.069 152.408,110.172 151.945,110.297 151.945 C 110.423 151.945,110.526 151.585,110.526 151.144 C 110.526 150.704,110.629 150.343,110.755 150.343 C 110.881 150.343,110.984 149.942,110.984 149.452 C 110.984 148.872,111.103 148.516,111.327 148.430 C 111.528 148.353,111.670 148.010,111.670 147.604 C 111.670 147.223,111.773 146.911,111.899 146.911 C 112.025 146.911,112.128 146.447,112.128 145.881 C 112.128 145.315,112.231 144.851,112.357 144.851 C 112.486 144.851,112.586 144.203,112.586 143.364 L 112.586 141.876 109.728 141.876 C 106.403 141.876,105.950 142.073,105.950 143.516 C 105.950 143.984,105.847 144.430,105.721 144.508 C 105.595 144.586,105.492 145.055,105.492 145.551 C 105.492 146.047,105.389 146.453,105.263 146.453 C 105.137 146.453,105.034 147.019,105.034 147.712 C 105.034 148.404,104.931 148.970,104.805 148.970 C 104.680 148.970,104.577 149.537,104.577 150.229 C 104.577 150.921,104.474 151.487,104.348 151.487 C 104.222 151.487,104.119 151.940,104.119 152.493 C 104.119 153.175,104.009 153.540,103.776 153.630 C 103.573 153.707,103.432 154.051,103.432 154.469 C 103.432 154.882,103.337 155.117,103.204 155.034 C 103.078 154.957,102.975 154.487,102.975 153.991 C 102.975 153.495,102.872 153.089,102.746 153.089 C 102.620 153.089,102.517 152.523,102.517 151.831 C 102.517 151.138,102.414 150.572,102.288 150.572 C 102.162 150.572,102.059 150.109,102.059 149.542 C 102.059 148.976,101.957 148.513,101.831 148.513 C 101.705 148.513,101.602 147.994,101.602 147.361 C 101.602 146.549,101.501 146.171,101.259 146.078 C 101.026 145.989,100.915 145.624,100.915 144.941 C 100.915 144.388,100.812 143.936,100.686 143.936 C 100.561 143.936,100.458 143.620,100.458 143.233 C 100.458 142.027,100.093 141.875,97.213 141.885 C 95.271 141.892,94.551 141.975,94.336 142.219 M119.680 142.105 C 119.680 142.231,119.419 142.334,119.100 142.334 C 118.482 142.334,117.516 142.861,116.907 143.530 C 116.703 143.753,116.458 143.936,116.361 143.936 C 116.049 143.936,115.104 145.183,115.103 145.595 C 115.103 145.815,115.000 145.995,114.874 145.995 C 114.748 145.995,114.645 146.304,114.645 146.682 C 114.645 147.059,114.542 147.368,114.416 147.368 C 114.272 147.368,114.188 149.047,114.188 151.945 C 114.188 154.844,114.272 156.522,114.416 156.522 C 114.542 156.522,114.645 156.825,114.645 157.195 C 114.645 157.565,114.748 157.931,114.874 158.009 C 115.000 158.087,115.103 158.326,115.103 158.540 C 115.103 158.755,115.380 159.135,115.719 159.385 C 116.059 159.635,116.493 160.020,116.686 160.240 C 116.878 160.461,117.167 160.641,117.328 160.641 C 117.489 160.641,117.620 160.744,117.620 160.870 C 117.620 160.995,117.820 161.098,118.064 161.098 C 118.309 161.098,118.572 161.201,118.650 161.327 C 118.728 161.453,119.094 161.556,119.464 161.556 C 119.834 161.556,120.137 161.659,120.137 161.785 C 120.137 161.927,121.396 162.014,123.455 162.014 C 125.515 162.014,126.773 161.927,126.773 161.785 C 126.773 161.659,127.366 161.553,128.089 161.549 C 129.376 161.542,130.206 161.198,130.206 160.673 C 130.206 160.529,130.309 160.412,130.435 160.412 C 130.807 160.412,130.720 157.232,130.337 156.849 C 130.078 156.589,129.153 156.522,125.874 156.522 C 123.270 156.522,121.739 156.437,121.739 156.293 C 121.739 156.167,121.629 156.064,121.494 156.064 C 121.090 156.064,120.595 155.443,120.595 154.936 C 120.595 154.676,120.492 154.462,120.366 154.462 C 120.240 154.462,120.137 154.359,120.137 154.233 C 120.137 154.087,122.121 154.005,125.629 154.005 L 131.121 154.005 131.121 151.030 C 131.121 149.199,131.033 148.055,130.892 148.055 C 130.767 148.055,130.664 147.695,130.664 147.254 C 130.664 146.814,130.561 146.453,130.435 146.453 C 130.309 146.453,130.206 146.308,130.206 146.131 C 130.206 145.688,129.251 143.936,129.009 143.936 C 128.901 143.936,128.564 143.704,128.261 143.421 C 127.219 142.446,127.019 142.334,126.325 142.334 C 125.943 142.334,125.629 142.231,125.629 142.105 C 125.629 141.964,124.485 141.876,122.654 141.876 C 120.824 141.876,119.680 141.964,119.680 142.105 M169.222 142.105 C 169.144 142.231,168.829 142.334,168.522 142.334 C 168.215 142.334,167.963 142.437,167.963 142.563 C 167.963 142.689,167.823 142.792,167.652 142.792 C 167.481 142.792,167.148 143.049,166.911 143.364 C 166.675 143.678,166.399 143.936,166.297 143.936 C 166.027 143.936,164.989 145.018,164.989 145.299 C 164.989 145.430,164.886 145.538,164.760 145.538 C 164.634 145.538,164.531 145.744,164.531 145.995 C 164.531 146.247,164.428 146.453,164.302 146.453 C 164.176 146.453,164.073 146.905,164.073 147.458 C 164.073 148.141,163.963 148.506,163.730 148.595 C 163.447 148.704,163.387 149.305,163.387 152.028 C 163.387 154.751,163.447 155.352,163.730 155.460 C 163.957 155.547,164.073 155.906,164.073 156.515 C 164.073 157.022,164.176 157.437,164.302 157.437 C 164.428 157.437,164.531 157.646,164.531 157.902 C 164.531 158.380,165.930 159.954,166.354 159.954 C 166.484 159.954,166.590 160.065,166.590 160.199 C 166.590 160.559,167.191 161.098,167.590 161.098 C 167.781 161.098,168.000 161.201,168.078 161.327 C 168.156 161.453,168.522 161.556,168.892 161.556 C 169.262 161.556,169.565 161.659,169.565 161.785 C 169.565 161.927,170.857 162.014,172.984 162.014 C 175.017 162.014,176.461 161.921,176.545 161.785 C 176.622 161.659,177.189 161.556,177.803 161.556 C 178.418 161.556,178.984 161.453,179.062 161.327 C 179.140 161.201,179.403 161.098,179.647 161.098 C 180.057 161.098,180.092 160.923,180.092 158.810 L 180.092 156.522 175.872 156.522 C 173.305 156.522,171.596 156.432,171.510 156.293 C 171.433 156.167,171.169 156.064,170.925 156.064 C 170.638 156.064,170.481 155.907,170.481 155.620 C 170.481 155.376,170.378 155.112,170.252 155.034 C 170.126 154.957,170.023 154.693,170.023 154.449 C 170.023 154.022,170.228 154.005,175.188 154.005 C 179.359 154.005,180.416 153.942,180.680 153.678 C 181.065 153.293,181.153 149.886,180.778 149.886 C 180.649 149.886,180.549 149.237,180.549 148.398 C 180.549 147.559,180.449 146.911,180.320 146.911 C 180.195 146.911,180.092 146.705,180.092 146.453 C 180.092 146.201,179.989 145.995,179.863 145.995 C 179.737 145.995,179.634 145.782,179.634 145.521 C 179.634 145.049,179.150 144.398,178.792 144.389 C 178.689 144.386,178.296 144.026,177.920 143.588 C 177.543 143.150,177.106 142.792,176.947 142.792 C 176.789 142.792,176.659 142.689,176.659 142.563 C 176.659 142.437,176.408 142.334,176.100 142.334 C 175.793 142.334,175.478 142.231,175.400 142.105 C 175.318 141.972,174.030 141.876,172.311 141.876 C 170.593 141.876,169.304 141.972,169.222 142.105 M209.382 142.563 C 209.382 142.689,208.967 142.792,208.460 142.792 C 207.851 142.792,207.492 142.908,207.405 143.135 C 207.333 143.324,207.079 143.478,206.841 143.478 C 206.602 143.478,206.407 143.581,206.407 143.707 C 206.407 143.833,206.292 143.936,206.152 143.936 C 205.756 143.936,204.348 145.578,204.348 146.040 C 204.348 146.267,204.245 146.453,204.119 146.453 C 203.993 146.453,203.890 146.648,203.890 146.886 C 203.890 147.125,203.743 147.376,203.564 147.445 C 203.057 147.639,203.032 156.979,203.539 156.979 C 203.783 156.979,203.890 157.208,203.890 157.730 C 203.890 158.218,204.050 158.596,204.348 158.810 C 204.600 158.991,204.805 159.281,204.805 159.453 C 204.805 159.817,205.703 160.622,206.121 160.633 C 206.279 160.637,206.407 160.744,206.407 160.870 C 206.407 160.995,206.613 161.098,206.865 161.098 C 207.117 161.098,207.323 161.201,207.323 161.327 C 207.323 161.453,207.683 161.556,208.124 161.556 C 208.564 161.556,208.924 161.659,208.924 161.785 C 208.924 161.920,209.725 162.014,210.870 162.014 C 212.014 162.014,212.815 161.920,212.815 161.785 C 212.815 161.659,213.278 161.556,213.844 161.556 C 214.411 161.556,214.874 161.453,214.874 161.327 C 214.874 161.201,215.037 161.098,215.235 161.098 C 215.698 161.098,217.391 159.398,217.391 158.933 C 217.391 158.740,217.494 158.581,217.620 158.581 C 217.746 158.581,217.849 158.324,217.849 158.009 C 217.849 157.695,217.952 157.437,218.078 157.437 C 218.206 157.437,218.307 156.797,218.307 155.974 C 218.307 154.885,218.394 154.478,218.650 154.379 C 218.920 154.276,218.993 153.806,218.993 152.174 C 218.993 150.542,218.920 150.072,218.650 149.968 C 218.394 149.870,218.307 149.463,218.307 148.374 C 218.307 147.551,218.206 146.911,218.078 146.911 C 217.952 146.911,217.849 146.705,217.849 146.453 C 217.849 146.201,217.746 145.995,217.620 145.995 C 217.494 145.995,217.391 145.806,217.391 145.576 C 217.391 145.089,216.186 143.936,215.677 143.936 C 215.487 143.936,215.332 143.833,215.332 143.707 C 215.332 143.581,215.137 143.478,214.899 143.478 C 214.660 143.478,214.406 143.324,214.334 143.135 C 214.247 142.908,213.888 142.792,213.279 142.792 C 212.772 142.792,212.357 142.689,212.357 142.563 C 212.357 142.434,211.709 142.334,210.870 142.334 C 210.031 142.334,209.382 142.434,209.382 142.563 M245.080 142.564 C 244.891 142.676,244.351 142.829,243.879 142.904 C 243.407 142.980,243.021 143.140,243.021 143.260 C 243.021 143.380,242.837 143.478,242.613 143.478 C 242.390 143.478,242.058 143.684,241.876 143.936 C 241.695 144.188,241.459 144.394,241.352 144.394 C 241.076 144.394,240.503 145.000,240.503 145.293 C 240.503 145.427,240.400 145.538,240.275 145.538 C 240.149 145.538,240.046 145.738,240.046 145.982 C 240.046 146.226,239.943 146.490,239.817 146.568 C 239.691 146.645,239.588 147.115,239.588 147.611 C 239.588 148.107,239.485 148.513,239.359 148.513 C 239.216 148.513,239.130 149.924,239.130 152.288 C 239.130 154.653,239.216 156.064,239.359 156.064 C 239.485 156.064,239.588 156.470,239.588 156.966 C 239.588 157.462,239.691 157.931,239.817 158.009 C 239.943 158.087,240.046 158.304,240.046 158.491 C 240.046 158.878,241.047 159.954,241.408 159.954 C 241.540 159.954,241.648 160.065,241.648 160.199 C 241.648 160.564,242.250 161.098,242.661 161.098 C 242.859 161.098,243.021 161.201,243.021 161.327 C 243.021 161.453,243.381 161.556,243.822 161.556 C 244.262 161.556,244.622 161.659,244.622 161.785 C 244.622 161.926,245.767 162.014,247.597 162.014 C 249.428 162.014,250.572 161.926,250.572 161.785 C 250.572 161.658,251.185 161.556,251.955 161.556 C 253.846 161.556,254.285 161.145,254.189 159.468 L 254.119 158.238 252.346 158.171 C 251.225 158.129,250.572 158.192,250.572 158.343 C 250.572 158.492,249.718 158.581,248.284 158.581 C 246.911 158.581,245.995 158.490,245.995 158.352 C 245.995 158.227,245.686 158.124,245.309 158.124 C 244.890 158.124,244.622 158.005,244.622 157.819 C 244.622 157.651,244.365 157.377,244.050 157.208 C 243.647 156.992,243.478 156.711,243.478 156.254 C 243.478 155.898,243.375 155.606,243.249 155.606 C 243.124 155.606,243.021 155.145,243.021 154.581 L 243.021 153.555 248.799 153.494 L 254.577 153.432 254.642 150.973 C 254.683 149.390,254.622 148.513,254.470 148.513 C 254.340 148.513,254.233 148.097,254.233 147.590 C 254.233 146.981,254.117 146.623,253.890 146.536 C 253.701 146.463,253.547 146.209,253.547 145.971 C 253.547 145.733,253.444 145.538,253.318 145.538 C 253.192 145.538,253.089 145.431,253.089 145.301 C 253.089 144.924,251.540 143.478,251.135 143.478 C 250.933 143.478,250.614 143.324,250.425 143.135 C 250.236 142.946,249.729 142.792,249.297 142.792 C 248.866 142.792,248.513 142.689,248.513 142.563 C 248.513 142.280,245.559 142.281,245.080 142.564 M261.327 142.563 C 261.327 142.689,260.912 142.792,260.405 142.792 C 259.796 142.792,259.437 142.908,259.350 143.135 C 259.278 143.324,259.019 143.478,258.775 143.478 C 258.087 143.478,257.208 144.499,257.208 145.299 C 257.208 145.682,257.105 145.995,256.979 145.995 C 256.850 145.995,256.751 146.644,256.751 147.483 C 256.751 148.322,256.850 148.970,256.979 148.970 C 257.105 148.970,257.208 149.176,257.208 149.428 C 257.208 149.680,257.311 149.886,257.437 149.886 C 257.563 149.886,257.666 150.075,257.666 150.305 C 257.666 150.739,258.850 151.945,259.276 151.945 C 259.409 151.945,259.775 152.203,260.089 152.517 C 260.404 152.832,260.811 153.089,260.994 153.089 C 261.177 153.089,261.327 153.192,261.327 153.318 C 261.327 153.444,261.510 153.547,261.734 153.547 C 261.958 153.547,262.290 153.753,262.471 154.005 C 262.653 154.256,263.036 154.462,263.323 154.462 C 263.610 154.462,263.844 154.565,263.844 154.691 C 263.844 154.817,264.050 154.920,264.302 154.920 C 264.554 154.920,264.760 155.052,264.760 155.213 C 264.760 155.374,264.966 155.654,265.217 155.835 C 265.831 156.277,265.795 157.183,265.133 157.952 C 264.565 158.613,259.725 158.971,259.725 158.352 C 259.725 157.992,257.452 158.076,257.077 158.450 C 256.888 158.640,256.751 159.224,256.751 159.840 C 256.751 161.219,257.107 161.556,258.565 161.556 C 259.203 161.556,259.725 161.659,259.725 161.785 C 259.725 161.926,260.870 162.014,262.700 162.014 C 264.531 162.014,265.675 161.926,265.675 161.785 C 265.675 161.659,266.035 161.556,266.476 161.556 C 266.916 161.556,267.277 161.453,267.277 161.327 C 267.277 161.201,267.436 161.098,267.630 161.098 C 268.104 161.098,268.728 160.481,269.312 159.432 C 270.281 157.693,269.687 153.089,268.493 153.089 C 268.328 153.089,268.192 152.979,268.192 152.844 C 268.192 152.479,267.590 151.945,267.179 151.945 C 266.981 151.945,266.819 151.842,266.819 151.716 C 266.819 151.590,266.665 151.487,266.476 151.487 C 266.287 151.487,266.133 151.384,266.133 151.259 C 266.133 151.133,265.927 151.030,265.675 151.030 C 265.423 151.030,265.217 150.927,265.217 150.801 C 265.217 150.675,265.011 150.572,264.760 150.572 C 264.505 150.572,264.302 150.420,264.302 150.229 C 264.302 150.024,264.092 149.886,263.780 149.886 C 263.494 149.886,263.110 149.680,262.929 149.428 C 262.748 149.176,262.416 148.970,262.192 148.970 C 261.968 148.970,261.785 148.867,261.785 148.741 C 261.785 148.616,261.668 148.513,261.524 148.513 C 261.205 148.513,260.658 147.823,260.648 147.409 C 260.638 147.005,261.211 146.453,261.641 146.453 C 261.831 146.453,262.050 146.350,262.128 146.224 C 262.321 145.912,266.362 145.923,266.362 146.235 C 266.362 146.384,266.904 146.449,267.792 146.407 L 269.222 146.339 269.290 144.757 C 269.373 142.861,269.308 142.800,267.220 142.795 C 266.345 142.793,265.675 142.693,265.675 142.563 C 265.675 142.426,264.798 142.334,263.501 142.334 C 262.204 142.334,261.327 142.426,261.327 142.563 M277.918 142.563 C 277.840 142.689,277.493 142.792,277.147 142.792 C 276.801 142.792,276.318 142.943,276.073 143.128 C 275.829 143.313,275.492 143.467,275.325 143.471 C 274.922 143.481,273.227 145.257,273.227 145.671 C 273.227 145.849,273.124 145.995,272.998 145.995 C 272.872 145.995,272.769 146.201,272.769 146.453 C 272.769 146.705,272.666 146.911,272.540 146.911 C 272.414 146.911,272.311 147.477,272.311 148.169 C 272.311 148.862,272.208 149.428,272.082 149.428 C 271.943 149.428,271.854 150.496,271.854 152.174 C 271.854 153.852,271.943 154.920,272.082 154.920 C 272.208 154.920,272.311 155.486,272.311 156.178 C 272.311 156.871,272.414 157.437,272.540 157.437 C 272.666 157.437,272.769 157.695,272.769 158.009 C 272.769 158.324,272.872 158.581,272.998 158.581 C 273.124 158.581,273.227 158.787,273.227 159.039 C 273.227 159.291,273.337 159.497,273.472 159.497 C 273.768 159.497,274.371 160.071,274.371 160.353 C 274.371 160.662,276.172 161.556,276.795 161.556 C 277.098 161.556,277.346 161.659,277.346 161.785 C 277.346 161.924,278.337 162.014,279.863 162.014 C 281.388 162.014,282.380 161.924,282.380 161.785 C 282.380 161.659,282.843 161.556,283.410 161.556 L 284.439 161.556 284.439 159.840 L 284.439 158.124 283.410 158.124 C 282.843 158.124,282.380 158.227,282.380 158.352 C 282.380 158.486,281.617 158.581,280.549 158.581 C 279.481 158.581,278.719 158.486,278.719 158.352 C 278.719 158.227,278.524 158.124,278.285 158.124 C 278.047 158.124,277.793 157.969,277.720 157.780 C 277.648 157.592,277.456 157.437,277.294 157.437 C 276.988 157.437,276.565 156.632,276.304 155.549 C 276.220 155.203,276.060 154.920,275.948 154.920 C 275.571 154.920,275.700 149.667,276.087 149.281 C 276.276 149.092,276.430 148.736,276.430 148.489 C 276.430 147.965,277.860 146.453,278.354 146.453 C 278.540 146.453,278.755 146.350,278.833 146.224 C 278.911 146.098,279.535 145.995,280.219 145.995 C 280.904 145.995,281.465 146.098,281.465 146.224 C 281.465 146.353,282.116 146.453,282.962 146.453 L 284.459 146.453 284.392 144.680 L 284.325 142.906 282.952 142.836 C 282.197 142.798,281.481 142.669,281.362 142.550 C 281.071 142.261,278.097 142.272,277.918 142.563 M310.526 142.563 C 310.526 142.689,310.111 142.792,309.604 142.792 C 308.995 142.792,308.637 142.908,308.550 143.135 C 308.477 143.324,308.223 143.478,307.985 143.478 C 307.746 143.478,307.551 143.581,307.551 143.707 C 307.551 143.833,307.390 143.936,307.192 143.936 C 306.582 143.936,305.034 146.066,305.034 146.906 C 305.034 147.160,304.931 147.368,304.805 147.368 C 304.660 147.368,304.577 149.123,304.577 152.174 C 304.577 155.225,304.660 156.979,304.805 156.979 C 304.931 156.979,305.034 157.292,305.034 157.674 C 305.034 158.074,305.253 158.610,305.549 158.936 C 307.406 160.983,308.206 161.555,309.211 161.556 C 309.682 161.556,310.069 161.659,310.069 161.785 C 310.069 161.921,310.908 162.014,312.128 162.014 C 313.349 162.014,314.188 161.921,314.188 161.785 C 314.188 161.659,314.600 161.556,315.103 161.556 C 315.606 161.556,316.018 161.453,316.018 161.327 C 316.018 161.201,316.126 161.098,316.257 161.098 C 316.388 161.098,316.634 160.983,316.803 160.841 C 318.017 159.826,318.535 159.267,318.535 158.972 C 318.535 158.784,318.690 158.571,318.879 158.498 C 319.079 158.421,319.222 158.079,319.222 157.673 C 319.222 157.292,319.325 156.979,319.451 156.979 C 319.596 156.979,319.680 155.225,319.680 152.174 C 319.680 149.123,319.596 147.368,319.451 147.368 C 319.325 147.368,319.222 147.108,319.222 146.789 C 319.222 146.471,319.068 146.151,318.879 146.078 C 318.690 146.006,318.535 145.803,318.535 145.628 C 318.535 145.452,318.458 145.309,318.362 145.309 C 318.267 145.309,318.053 145.000,317.886 144.622 C 317.701 144.204,317.410 143.936,317.143 143.936 C 316.902 143.936,316.705 143.833,316.705 143.707 C 316.705 143.581,316.458 143.478,316.157 143.478 C 315.856 143.478,315.550 143.324,315.478 143.135 C 315.391 142.908,315.033 142.792,314.424 142.792 C 313.916 142.792,313.501 142.689,313.501 142.563 C 313.501 142.434,312.853 142.334,312.014 142.334 C 311.175 142.334,310.526 142.434,310.526 142.563 M328.261 142.563 C 328.183 142.689,327.714 142.792,327.218 142.792 C 326.569 142.792,326.316 142.888,326.316 143.135 C 326.316 143.340,326.105 143.478,325.794 143.478 C 325.507 143.478,325.124 143.684,324.943 143.936 C 324.761 144.188,324.430 144.394,324.206 144.394 C 323.982 144.394,323.799 144.503,323.799 144.638 C 323.799 144.772,323.541 145.219,323.227 145.632 C 322.912 146.044,322.654 146.604,322.654 146.875 C 322.654 147.146,322.551 147.368,322.426 147.368 C 322.280 147.368,322.197 149.123,322.197 152.174 C 322.197 155.225,322.280 156.979,322.426 156.979 C 322.551 156.979,322.656 157.263,322.658 157.609 C 322.664 158.974,325.393 161.555,326.831 161.556 C 327.303 161.556,327.689 161.659,327.689 161.785 C 327.689 161.921,328.528 162.014,329.748 162.014 C 330.969 162.014,331.808 161.921,331.808 161.785 C 331.808 161.659,332.220 161.556,332.723 161.556 C 333.227 161.556,333.638 161.453,333.638 161.327 C 333.638 161.201,333.793 161.098,333.982 161.098 C 334.170 161.098,334.325 160.995,334.325 160.870 C 334.325 160.744,334.443 160.641,334.586 160.641 C 335.130 160.641,336.142 159.331,337.104 157.383 C 337.387 156.809,337.356 147.368,337.071 147.368 C 336.945 147.368,336.842 147.097,336.842 146.765 C 336.842 146.434,336.610 145.944,336.327 145.677 C 336.044 145.409,335.666 144.908,335.488 144.563 C 335.309 144.218,334.974 143.936,334.744 143.936 C 334.513 143.936,334.325 143.833,334.325 143.707 C 334.325 143.581,334.079 143.478,333.777 143.478 C 333.476 143.478,333.170 143.324,333.098 143.135 C 333.011 142.908,332.653 142.792,332.044 142.792 C 331.536 142.792,331.121 142.689,331.121 142.563 C 331.121 142.436,330.516 142.334,329.762 142.334 C 329.014 142.334,328.339 142.437,328.261 142.563 M225.548 143.135 C 225.359 143.324,224.940 143.478,224.616 143.478 C 224.292 143.478,224.027 143.581,224.027 143.707 C 224.027 143.833,223.913 143.936,223.772 143.936 C 223.376 143.936,221.968 145.578,221.968 146.040 C 221.968 146.267,221.865 146.453,221.739 146.453 C 221.411 146.453,221.434 151.881,221.762 151.991 C 221.900 152.037,222.014 152.480,222.014 152.975 C 222.014 153.470,221.900 153.913,221.762 153.959 C 221.443 154.065,221.421 156.979,221.739 156.979 C 221.865 156.979,221.968 157.165,221.968 157.391 C 221.968 157.618,222.097 157.940,222.254 158.106 C 222.483 158.349,222.483 158.431,222.254 158.514 C 222.097 158.572,221.968 158.817,221.968 159.058 C 221.968 159.299,221.865 159.497,221.739 159.497 C 221.613 159.497,221.510 159.857,221.510 160.297 C 221.510 160.857,221.407 161.098,221.167 161.098 C 220.900 161.098,220.824 161.404,220.824 162.479 C 220.824 163.494,220.914 163.894,221.167 163.990 C 221.363 164.066,221.510 164.407,221.510 164.784 C 221.510 165.148,221.613 165.446,221.739 165.446 C 221.865 165.446,221.968 165.554,221.968 165.685 C 221.968 166.102,223.072 167.048,223.559 167.048 C 223.817 167.048,224.027 167.151,224.027 167.277 C 224.027 167.403,224.325 167.506,224.689 167.506 C 225.067 167.506,225.408 167.653,225.483 167.849 C 225.592 168.134,226.222 168.192,229.176 168.192 C 232.131 168.192,232.760 168.134,232.869 167.849 C 232.950 167.637,233.298 167.506,233.777 167.506 C 234.204 167.506,234.554 167.403,234.554 167.277 C 234.554 167.151,234.720 167.048,234.924 167.048 C 235.442 167.048,236.605 165.666,236.610 165.046 C 236.612 164.763,236.716 164.531,236.842 164.531 C 236.977 164.531,237.071 163.730,237.071 162.586 C 237.071 161.442,236.977 160.641,236.842 160.641 C 236.716 160.641,236.610 160.512,236.606 160.355 C 236.595 159.936,235.790 159.039,235.426 159.039 C 235.253 159.039,234.964 158.833,234.783 158.581 C 234.572 158.289,234.190 158.124,233.727 158.124 C 233.293 158.124,232.948 157.986,232.869 157.780 C 232.793 157.582,232.451 157.437,232.057 157.437 C 231.683 157.437,231.313 157.334,231.236 157.208 C 231.158 157.082,230.746 156.979,230.320 156.979 C 229.895 156.979,229.483 156.876,229.405 156.751 C 229.327 156.625,228.858 156.522,228.362 156.522 C 227.866 156.522,227.460 156.419,227.460 156.293 C 227.460 156.167,227.041 156.064,226.528 156.064 C 225.630 156.064,224.943 155.675,224.943 155.165 C 224.943 154.763,226.477 154.870,226.635 155.283 C 226.816 155.755,231.821 155.682,231.980 155.206 C 232.032 155.049,232.375 154.920,232.742 154.920 C 233.109 154.920,233.410 154.817,233.410 154.691 C 233.410 154.565,233.619 154.462,233.875 154.462 C 234.337 154.462,235.927 153.069,235.927 152.664 C 235.927 152.547,236.081 152.392,236.270 152.320 C 236.550 152.213,236.613 151.659,236.613 149.321 C 236.613 146.924,236.557 146.453,236.270 146.453 C 235.596 146.453,235.941 146.023,236.670 145.953 C 237.593 145.864,237.898 144.144,237.146 143.266 C 236.607 142.636,226.164 142.519,225.548 143.135 M211.442 146.224 C 211.442 146.350,211.706 146.453,212.030 146.453 C 212.354 146.453,212.749 146.582,212.908 146.739 C 213.067 146.896,213.471 147.230,213.807 147.480 C 214.250 147.810,214.416 148.139,214.416 148.681 C 214.416 149.092,214.519 149.428,214.645 149.428 C 214.785 149.428,214.874 150.496,214.874 152.174 C 214.874 153.852,214.785 154.920,214.645 154.920 C 214.519 154.920,214.416 155.229,214.416 155.607 C 214.416 156.334,212.851 158.124,212.215 158.124 C 212.041 158.124,211.899 158.227,211.899 158.352 C 211.899 158.478,211.436 158.581,210.870 158.581 C 210.303 158.581,209.840 158.478,209.840 158.352 C 209.840 158.227,209.689 158.124,209.504 158.124 C 209.057 158.124,207.780 156.858,207.780 156.415 C 207.780 156.222,207.677 156.064,207.551 156.064 C 207.426 156.064,207.323 155.498,207.323 154.805 C 207.323 154.113,207.220 153.547,207.094 153.547 C 206.968 153.547,206.865 152.981,206.865 152.288 C 206.865 151.596,206.968 151.030,207.094 151.030 C 207.220 151.030,207.323 150.463,207.323 149.771 C 207.323 149.079,207.426 148.513,207.551 148.513 C 207.677 148.513,207.780 148.299,207.780 148.039 C 207.780 147.483,208.287 146.911,208.780 146.911 C 208.971 146.911,209.190 146.808,209.268 146.682 C 209.346 146.556,209.609 146.453,209.853 146.453 C 210.098 146.453,210.297 146.350,210.297 146.224 C 210.297 146.098,210.555 145.995,210.870 145.995 C 211.184 145.995,211.442 146.098,211.442 146.224 M229.519 146.224 C 229.519 146.350,229.936 146.453,230.445 146.453 C 231.420 146.453,232.494 147.221,232.494 147.917 C 232.494 148.104,232.597 148.320,232.723 148.398 C 232.849 148.476,232.952 148.842,232.952 149.213 C 232.952 149.583,232.849 149.886,232.723 149.886 C 232.597 149.886,232.494 150.099,232.494 150.360 C 232.494 150.921,231.986 151.487,231.481 151.487 C 231.283 151.487,231.121 151.590,231.121 151.716 C 231.121 151.852,230.282 151.945,229.062 151.945 C 227.841 151.945,227.002 151.852,227.002 151.716 C 227.002 151.590,226.789 151.487,226.528 151.487 C 225.851 151.487,225.400 150.945,225.400 150.131 C 225.400 149.744,225.297 149.428,225.172 149.428 C 225.046 149.428,224.943 149.222,224.943 148.970 C 224.943 148.719,225.046 148.513,225.172 148.513 C 225.297 148.513,225.400 148.299,225.400 148.039 C 225.400 147.532,225.896 146.911,226.299 146.911 C 226.434 146.911,226.545 146.808,226.545 146.682 C 226.545 146.556,226.957 146.453,227.460 146.453 C 227.963 146.453,228.375 146.350,228.375 146.224 C 228.375 146.098,228.633 145.995,228.947 145.995 C 229.262 145.995,229.519 146.098,229.519 146.224 M247.597 146.224 C 247.597 146.350,247.855 146.453,248.169 146.453 C 248.484 146.453,248.741 146.556,248.741 146.682 C 248.741 146.808,248.947 146.911,249.199 146.911 C 249.504 146.911,249.657 147.063,249.657 147.368 C 249.657 147.620,249.760 147.826,249.886 147.826 C 250.011 147.826,250.114 148.026,250.114 148.270 C 250.114 148.515,250.217 148.778,250.343 148.856 C 250.469 148.934,250.572 149.352,250.572 149.785 L 250.572 150.572 246.796 150.572 L 243.021 150.572 243.021 149.771 C 243.021 149.331,243.124 148.970,243.249 148.970 C 243.375 148.970,243.478 148.724,243.478 148.423 C 243.478 148.121,243.633 147.816,243.822 147.743 C 244.010 147.671,244.165 147.454,244.165 147.261 C 244.165 147.063,244.364 146.911,244.622 146.911 C 244.874 146.911,245.080 146.808,245.080 146.682 C 245.080 146.556,245.383 146.453,245.753 146.453 C 246.123 146.453,246.490 146.350,246.568 146.224 C 246.645 146.098,246.909 145.995,247.153 145.995 C 247.397 145.995,247.597 146.098,247.597 146.224 M312.586 146.224 C 312.586 146.350,312.899 146.453,313.283 146.453 C 314.029 146.453,315.103 147.317,315.103 147.917 C 315.103 148.104,315.206 148.320,315.332 148.398 C 315.458 148.476,315.561 148.842,315.561 149.213 C 315.561 149.583,315.664 149.886,315.789 149.886 C 315.927 149.886,316.018 150.801,316.018 152.174 C 316.018 153.547,315.927 154.462,315.789 154.462 C 315.664 154.462,315.561 154.823,315.561 155.263 C 315.561 155.704,315.458 156.064,315.332 156.064 C 315.206 156.064,315.103 156.247,315.103 156.471 C 315.103 156.695,314.897 157.027,314.645 157.208 C 314.394 157.390,314.188 157.670,314.188 157.831 C 314.188 157.992,313.930 158.124,313.616 158.124 C 313.301 158.124,313.043 158.227,313.043 158.352 C 313.043 158.478,312.580 158.581,312.014 158.581 C 311.447 158.581,310.984 158.478,310.984 158.352 C 310.984 158.227,310.825 158.124,310.630 158.124 C 310.224 158.124,309.171 157.011,309.161 156.572 C 309.157 156.410,308.999 156.219,308.810 156.147 C 308.598 156.066,308.467 155.718,308.467 155.239 C 308.467 154.812,308.364 154.462,308.238 154.462 C 308.102 154.462,308.009 153.623,308.009 152.403 C 308.009 151.182,308.102 150.343,308.238 150.343 C 308.364 150.343,308.467 149.931,308.467 149.428 C 308.467 148.924,308.563 148.513,308.680 148.513 C 308.798 148.513,308.964 148.290,309.051 148.017 C 309.293 147.255,310.213 146.453,310.846 146.453 C 311.159 146.453,311.478 146.350,311.556 146.224 C 311.634 146.098,311.897 145.995,312.142 145.995 C 312.386 145.995,312.586 146.098,312.586 146.224 M330.320 146.224 C 330.398 146.350,330.718 146.453,331.031 146.453 C 331.997 146.453,333.181 148.034,333.181 149.324 C 333.181 149.671,333.312 149.886,333.524 149.886 C 333.806 149.886,333.867 150.290,333.867 152.149 C 333.867 153.951,333.797 154.440,333.524 154.545 C 333.308 154.628,333.181 154.978,333.181 155.487 C 333.181 156.075,332.993 156.494,332.494 157.015 C 332.117 157.411,331.808 157.821,331.808 157.929 C 331.808 158.036,331.550 158.124,331.236 158.124 C 330.921 158.124,330.664 158.227,330.664 158.352 C 330.664 158.478,330.200 158.581,329.634 158.581 C 329.068 158.581,328.604 158.478,328.604 158.352 C 328.604 158.227,328.398 158.124,328.146 158.124 C 327.895 158.124,327.689 157.992,327.689 157.831 C 327.689 157.670,327.483 157.390,327.231 157.208 C 326.979 157.027,326.773 156.743,326.773 156.578 C 326.773 156.414,326.619 156.219,326.430 156.147 C 326.197 156.057,326.087 155.692,326.087 155.010 C 326.087 154.457,325.984 154.005,325.858 154.005 C 325.725 154.005,325.629 153.242,325.629 152.174 C 325.629 151.106,325.725 150.343,325.858 150.343 C 325.984 150.343,326.087 149.942,326.087 149.452 C 326.087 148.872,326.206 148.516,326.430 148.430 C 326.619 148.357,326.773 148.136,326.773 147.937 C 326.773 147.380,327.831 146.453,328.466 146.453 C 328.779 146.453,329.098 146.350,329.176 146.224 C 329.254 146.098,329.511 145.995,329.748 145.995 C 329.985 145.995,330.243 146.098,330.320 146.224 M85.610 147.826 C 87.223 149.488,86.952 149.886,84.211 149.886 L 81.922 149.886 81.922 149.199 C 81.922 148.822,82.025 148.513,82.151 148.513 C 82.277 148.513,82.380 148.402,82.380 148.267 C 82.380 147.903,82.982 147.368,83.393 147.368 C 83.591 147.368,83.753 147.265,83.753 147.140 C 83.753 146.598,84.791 146.982,85.610 147.826 M123.227 147.140 C 123.304 147.265,123.524 147.368,123.714 147.368 C 124.272 147.368,124.714 147.968,124.714 148.725 C 124.714 149.112,124.817 149.428,124.943 149.428 C 125.069 149.428,125.172 149.531,125.172 149.657 C 125.172 149.795,124.180 149.886,122.654 149.886 C 120.290 149.886,120.137 149.858,120.137 149.428 C 120.137 149.176,120.240 148.970,120.366 148.970 C 120.492 148.970,120.595 148.757,120.595 148.496 C 120.595 148.236,120.742 147.875,120.922 147.695 C 121.102 147.516,121.462 147.368,121.723 147.368 C 121.983 147.368,122.197 147.265,122.197 147.140 C 122.197 147.014,122.397 146.911,122.641 146.911 C 122.885 146.911,123.149 147.014,123.227 147.140 M172.654 147.140 C 172.732 147.265,172.952 147.368,173.142 147.368 C 173.542 147.368,174.142 147.908,174.142 148.267 C 174.142 148.402,174.245 148.513,174.371 148.513 C 174.497 148.513,174.600 148.822,174.600 149.199 L 174.600 149.886 172.311 149.886 L 170.023 149.886 170.023 149.199 C 170.023 148.822,170.126 148.513,170.252 148.513 C 170.378 148.513,170.481 148.402,170.481 148.267 C 170.481 147.908,171.081 147.368,171.480 147.368 C 171.671 147.368,171.890 147.265,171.968 147.140 C 172.046 147.014,172.200 146.911,172.311 146.911 C 172.422 146.911,172.577 147.014,172.654 147.140 M154.462 151.945 L 154.462 156.522 152.730 156.522 C 150.957 156.522,150.343 156.265,150.343 155.522 C 150.343 155.331,150.240 155.112,150.114 155.034 C 149.980 154.951,149.886 153.583,149.886 151.703 C 149.886 149.729,149.973 148.513,150.114 148.513 C 150.240 148.513,150.343 148.405,150.343 148.274 C 150.343 147.621,150.958 147.386,152.689 147.377 L 154.462 147.368 154.462 151.945 M37.986 155.263 C 37.986 156.369,37.931 156.522,37.529 156.522 C 37.277 156.522,37.071 156.625,37.071 156.751 C 37.071 156.876,36.626 156.979,36.082 156.979 C 34.970 156.979,33.806 156.034,34.304 155.535 C 34.442 155.398,34.554 155.148,34.554 154.979 C 34.554 154.298,35.126 154.022,36.556 154.013 L 37.986 154.005 37.986 155.263 M227.002 159.725 C 227.002 159.851,227.466 159.954,228.032 159.954 C 228.759 159.954,229.062 160.048,229.062 160.272 C 229.062 160.454,229.382 160.644,229.805 160.714 C 231.975 161.073,232.952 161.725,232.952 162.815 C 232.952 163.458,232.037 164.531,231.488 164.531 C 231.301 164.531,231.085 164.634,231.007 164.760 C 230.929 164.886,230.099 164.989,229.163 164.989 C 228.180 164.989,227.460 164.892,227.460 164.760 C 227.460 164.634,227.146 164.531,226.763 164.531 C 225.644 164.531,224.943 163.653,224.943 162.253 C 224.943 161.618,225.046 161.098,225.172 161.098 C 225.297 161.098,225.400 160.888,225.400 160.631 C 225.400 160.374,225.529 160.018,225.686 159.839 C 226.014 159.467,227.002 159.382,227.002 159.725 " stroke="none" fill="#04accc" fill-rule="evenodd"></path><path id="path1" d="M244.920 150.514 C 246.027 150.556,247.778 150.556,248.810 150.513 C 249.842 150.471,248.936 150.437,246.796 150.437 C 244.657 150.437,243.812 150.472,244.920 150.514 M222.426 185.240 C 222.426 185.807,222.323 186.270,222.197 186.270 C 222.071 186.270,221.968 186.733,221.968 187.300 C 221.968 187.866,221.865 188.330,221.739 188.330 C 221.613 188.330,221.510 188.227,221.510 188.101 C 221.510 187.975,221.150 187.872,220.709 187.872 C 220.269 187.872,219.908 187.975,219.908 188.101 C 219.908 188.227,219.342 188.330,218.650 188.330 C 217.958 188.330,217.391 188.432,217.391 188.558 C 217.391 188.684,217.185 188.787,216.934 188.787 C 216.682 188.787,216.476 188.890,216.476 189.016 C 216.476 189.142,216.366 189.245,216.231 189.245 C 215.914 189.245,215.332 189.827,215.332 190.144 C 215.332 190.279,215.229 190.389,215.103 190.389 C 214.977 190.389,214.874 190.698,214.874 191.076 C 214.874 191.453,214.771 191.762,214.645 191.762 C 214.519 191.762,214.416 192.225,214.416 192.792 C 214.416 193.358,214.314 193.822,214.188 193.822 C 214.050 193.822,213.959 194.737,213.959 196.110 C 213.959 197.483,214.050 198.398,214.188 198.398 C 214.314 198.398,214.416 198.554,214.416 198.744 C 214.416 199.215,215.637 200.458,216.100 200.458 C 216.307 200.458,216.476 200.561,216.476 200.686 C 216.476 200.827,217.620 200.915,219.451 200.915 C 221.281 200.915,222.426 200.827,222.426 200.686 C 222.426 200.561,222.712 200.458,223.061 200.458 C 223.995 200.458,224.485 199.749,224.485 198.396 C 224.485 197.768,224.588 197.254,224.714 197.254 C 224.843 197.254,224.943 196.606,224.943 195.767 C 224.943 194.928,225.043 194.279,225.172 194.279 C 225.301 194.279,225.400 193.631,225.400 192.792 C 225.400 191.953,225.500 191.304,225.629 191.304 C 225.755 191.304,225.858 190.782,225.858 190.144 C 225.858 189.417,225.987 188.855,226.201 188.640 C 226.419 188.422,226.545 187.859,226.545 187.100 C 226.545 186.442,226.666 185.782,226.815 185.634 C 227.619 184.829,226.590 184.211,224.446 184.211 L 222.426 184.211 222.426 185.240 M252.460 184.553 C 252.303 184.732,252.174 185.397,252.174 186.032 C 252.174 186.666,252.071 187.185,251.945 187.185 C 251.815 187.185,251.716 187.864,251.716 188.763 C 251.716 189.954,251.632 190.372,251.373 190.472 C 251.120 190.569,251.030 190.968,251.030 191.984 C 251.030 192.751,250.928 193.364,250.801 193.364 C 250.675 193.364,250.572 193.930,250.572 194.622 C 250.572 195.315,250.469 195.881,250.343 195.881 C 250.214 195.881,250.114 196.529,250.114 197.368 C 250.114 198.207,250.015 198.856,249.886 198.856 C 249.536 198.856,249.613 200.218,249.984 200.588 C 251.073 201.678,254.233 200.765,254.233 199.361 C 254.233 198.685,254.645 197.941,255.018 197.941 C 255.090 197.941,255.149 198.249,255.149 198.627 C 255.149 199.005,255.252 199.314,255.378 199.314 C 255.503 199.314,255.606 199.497,255.606 199.720 C 255.606 200.596,256.402 200.915,258.584 200.915 L 260.641 200.915 260.641 199.886 C 260.641 199.319,260.538 198.856,260.412 198.856 C 260.286 198.856,260.183 198.650,260.183 198.398 C 260.183 198.146,260.080 197.941,259.954 197.941 C 259.828 197.941,259.725 197.683,259.725 197.368 C 259.725 197.054,259.622 196.796,259.497 196.796 C 259.371 196.796,259.268 196.590,259.268 196.339 C 259.268 196.084,259.115 195.881,258.924 195.881 C 258.714 195.881,258.581 195.667,258.581 195.328 C 258.581 195.024,258.453 194.715,258.295 194.641 C 258.066 194.535,258.066 194.481,258.295 194.375 C 258.453 194.301,258.581 194.044,258.581 193.802 C 258.581 193.561,258.692 193.364,258.826 193.364 C 259.088 193.364,259.725 192.802,259.725 192.572 C 259.725 192.335,261.299 190.847,261.548 190.847 C 261.678 190.847,261.785 190.715,261.785 190.554 C 261.785 190.393,261.991 190.113,262.243 189.931 C 262.511 189.738,262.700 189.339,262.700 188.966 L 262.700 188.330 260.281 188.330 C 257.787 188.330,257.208 188.520,257.208 189.343 C 257.208 189.541,257.105 189.703,256.979 189.703 C 256.854 189.703,256.751 189.857,256.751 190.046 C 256.751 190.235,256.596 190.389,256.407 190.389 C 256.219 190.389,256.064 190.492,256.064 190.618 C 256.064 190.744,255.961 190.847,255.835 190.847 C 255.709 190.847,255.606 190.589,255.606 190.275 C 255.606 189.960,255.709 189.703,255.835 189.703 C 255.961 189.703,256.064 189.147,256.064 188.468 C 256.064 187.583,256.161 187.197,256.407 187.103 C 256.660 187.006,256.751 186.606,256.751 185.591 L 256.751 184.211 254.748 184.219 C 253.314 184.225,252.665 184.320,252.460 184.553 M281.465 184.675 C 281.465 184.931,281.310 185.199,281.121 185.272 C 280.875 185.366,280.778 185.752,280.778 186.638 L 280.778 187.872 279.519 187.872 C 278.827 187.872,278.261 187.975,278.261 188.101 C 278.261 188.227,277.765 188.330,277.160 188.330 C 276.375 188.330,275.918 188.461,275.568 188.787 C 275.297 189.039,274.918 189.245,274.724 189.245 C 274.510 189.245,274.371 189.449,274.371 189.763 C 274.371 190.048,274.114 190.473,273.799 190.710 C 273.361 191.038,273.227 191.348,273.227 192.023 C 273.227 192.509,273.124 192.906,272.998 192.906 C 272.611 192.906,272.702 198.593,273.096 198.987 C 273.276 199.166,273.489 199.314,273.570 199.314 C 273.769 199.314,274.371 199.927,274.371 200.130 C 274.371 200.220,274.551 200.430,274.771 200.597 C 275.245 200.957,280.778 201.052,280.778 200.700 C 280.778 200.581,281.216 200.452,281.751 200.414 C 282.663 200.348,282.728 200.298,282.795 199.600 C 282.834 199.191,282.963 198.856,283.081 198.856 C 283.199 198.856,283.295 198.198,283.295 197.393 C 283.295 196.304,283.383 195.896,283.638 195.798 C 283.880 195.706,283.982 195.329,283.982 194.529 C 283.982 193.903,284.085 193.327,284.211 193.249 C 284.336 193.172,284.439 192.445,284.439 191.634 C 284.439 190.804,284.539 190.160,284.668 190.160 C 284.797 190.160,284.897 189.512,284.897 188.673 C 284.897 187.834,284.997 187.185,285.126 187.185 C 285.255 187.185,285.355 186.537,285.355 185.698 L 285.355 184.211 283.410 184.211 C 281.607 184.211,281.465 184.245,281.465 184.675 M364.531 185.469 C 364.531 186.161,364.428 186.728,364.302 186.728 C 364.176 186.728,364.073 187.088,364.073 187.529 C 364.073 188.088,363.970 188.330,363.730 188.330 C 363.541 188.330,363.387 188.227,363.387 188.101 C 363.387 187.975,363.078 187.872,362.700 187.872 C 362.323 187.872,362.014 187.975,362.014 188.101 C 362.014 188.227,361.447 188.330,360.755 188.330 C 360.063 188.330,359.497 188.432,359.497 188.558 C 359.497 188.684,359.286 188.787,359.029 188.787 C 358.541 188.787,357.437 189.733,357.437 190.150 C 357.437 190.281,357.334 190.389,357.208 190.389 C 357.082 190.389,356.979 189.970,356.979 189.457 C 356.979 188.945,356.832 188.379,356.653 188.199 C 356.282 187.828,354.920 187.751,354.920 188.101 C 354.920 188.241,353.852 188.330,352.174 188.330 L 349.428 188.330 349.428 189.588 C 349.428 190.280,349.325 190.847,349.199 190.847 C 349.070 190.847,348.970 191.495,348.970 192.334 C 348.970 193.504,348.897 193.822,348.627 193.822 C 348.357 193.822,348.284 194.139,348.284 195.309 C 348.284 196.148,348.184 196.796,348.055 196.796 C 347.919 196.796,347.826 197.638,347.826 198.865 L 347.826 200.933 349.828 200.867 L 351.831 200.801 351.901 199.828 C 351.940 199.293,352.068 198.856,352.187 198.856 C 352.306 198.856,352.403 198.289,352.403 197.597 C 352.403 196.905,352.506 196.339,352.632 196.339 C 352.761 196.339,352.860 195.690,352.860 194.851 C 352.860 194.012,352.960 193.364,353.089 193.364 C 353.215 193.364,353.318 193.106,353.318 192.792 C 353.318 192.334,353.432 192.220,353.890 192.220 C 354.205 192.220,354.462 192.117,354.462 191.991 C 354.462 191.865,354.926 191.762,355.492 191.762 C 356.359 191.762,356.522 191.692,356.522 191.318 C 356.522 191.074,356.625 190.810,356.751 190.732 C 356.880 190.652,356.979 190.844,356.979 191.176 C 356.979 191.498,356.876 191.762,356.751 191.762 C 356.625 191.762,356.522 192.328,356.522 193.021 C 356.522 193.987,356.442 194.279,356.178 194.279 C 355.900 194.279,355.835 194.649,355.835 196.231 C 355.835 197.756,355.910 198.213,356.178 198.315 C 356.367 198.388,356.522 198.595,356.522 198.776 C 356.522 199.172,357.545 200.232,358.311 200.629 C 358.984 200.979,364.206 201.028,364.416 200.686 C 364.494 200.561,364.861 200.458,365.231 200.458 C 365.677 200.458,365.904 200.342,365.904 200.114 C 365.904 199.926,366.058 199.771,366.247 199.771 C 366.511 199.771,366.590 199.479,366.590 198.513 C 366.590 197.820,366.693 197.254,366.819 197.254 C 366.948 197.254,367.048 196.606,367.048 195.767 C 367.048 194.928,367.148 194.279,367.277 194.279 C 367.403 194.279,367.506 193.713,367.506 193.021 C 367.506 192.328,367.609 191.762,367.735 191.762 C 367.864 191.762,367.963 191.114,367.963 190.275 C 367.963 189.436,368.063 188.787,368.192 188.787 C 368.320 188.787,368.421 188.166,368.421 187.382 C 368.421 186.342,368.519 185.906,368.798 185.702 C 369.938 184.868,369.013 184.211,366.700 184.211 L 364.531 184.211 364.531 185.469 M232.037 188.101 C 232.037 188.227,231.470 188.330,230.778 188.330 C 230.086 188.330,229.519 188.432,229.519 188.558 C 229.519 188.684,229.345 188.787,229.132 188.787 C 228.608 188.787,227.460 189.916,227.460 190.432 C 227.460 190.660,227.357 190.847,227.231 190.847 C 227.105 190.847,227.002 191.053,227.002 191.304 C 227.002 191.556,226.899 191.762,226.773 191.762 C 226.648 191.762,226.545 192.214,226.545 192.767 C 226.545 193.450,226.434 193.815,226.201 193.904 C 225.931 194.008,225.858 194.478,225.858 196.110 C 225.858 197.742,225.931 198.212,226.201 198.315 C 226.390 198.388,226.545 198.595,226.545 198.776 C 226.545 199.172,227.568 200.232,228.334 200.629 C 228.988 200.969,234.554 201.034,234.554 200.702 C 234.554 200.584,234.837 200.455,235.183 200.416 C 235.803 200.344,235.813 200.315,235.879 198.570 L 235.946 196.796 235.021 196.796 C 234.512 196.796,234.096 196.899,234.096 197.025 C 234.096 197.561,231.130 197.284,230.539 196.692 C 229.717 195.870,229.676 195.881,233.524 195.881 L 237.071 195.881 237.071 195.309 C 237.071 194.994,237.174 194.737,237.300 194.737 C 237.434 194.737,237.529 193.936,237.529 192.792 C 237.529 191.648,237.434 190.847,237.300 190.847 C 237.174 190.847,237.071 190.633,237.071 190.373 C 237.071 189.894,236.582 189.245,236.222 189.245 C 236.115 189.245,235.879 189.039,235.698 188.787 C 235.457 188.452,235.106 188.330,234.389 188.330 C 233.850 188.330,233.410 188.227,233.410 188.101 C 233.410 187.975,233.101 187.872,232.723 187.872 C 232.346 187.872,232.037 187.975,232.037 188.101 M245.080 188.101 C 245.080 188.240,244.045 188.330,242.432 188.330 C 239.252 188.330,239.130 188.404,239.130 190.348 C 239.130 191.350,239.039 191.748,238.787 191.845 C 238.535 191.942,238.444 192.341,238.444 193.357 C 238.444 194.124,238.342 194.737,238.215 194.737 C 238.089 194.737,237.986 195.303,237.986 195.995 C 237.986 196.688,237.883 197.254,237.757 197.254 C 237.624 197.254,237.529 198.020,237.529 199.094 L 237.529 200.933 239.531 200.867 C 241.410 200.805,241.538 200.769,241.606 200.286 C 241.647 200.003,241.775 199.771,241.892 199.771 C 242.009 199.771,242.105 199.102,242.105 198.284 C 242.105 197.445,242.205 196.796,242.334 196.796 C 242.460 196.796,242.563 196.230,242.563 195.538 C 242.563 194.846,242.666 194.279,242.792 194.279 C 242.918 194.279,243.021 193.860,243.021 193.347 C 243.021 192.235,243.425 191.762,244.377 191.762 L 245.080 191.762 245.080 193.593 C 245.080 194.661,244.985 195.423,244.851 195.423 C 244.725 195.423,244.622 195.990,244.622 196.682 C 244.622 197.374,244.519 197.941,244.394 197.941 C 244.265 197.941,244.165 198.589,244.165 199.428 L 244.165 200.915 246.027 200.915 C 248.294 200.915,248.495 200.735,248.505 198.684 C 248.511 197.569,248.588 197.254,248.856 197.254 C 249.119 197.254,249.199 196.962,249.199 195.995 C 249.199 195.303,249.302 194.737,249.428 194.737 C 249.567 194.737,249.657 193.745,249.657 192.220 C 249.657 190.835,249.566 189.703,249.455 189.703 C 249.343 189.703,249.199 189.497,249.133 189.245 C 249.061 188.971,248.821 188.787,248.534 188.787 C 248.271 188.787,248.055 188.684,248.055 188.558 C 248.055 188.432,247.746 188.330,247.368 188.330 C 246.991 188.330,246.682 188.227,246.682 188.101 C 246.682 187.975,246.322 187.872,245.881 187.872 C 245.441 187.872,245.080 187.975,245.080 188.101 M290.389 188.101 C 290.389 188.227,289.926 188.330,289.359 188.330 C 288.793 188.330,288.330 188.432,288.330 188.558 C 288.330 188.684,288.170 188.787,287.976 188.787 C 287.578 188.787,286.499 189.782,286.499 190.150 C 286.499 190.281,286.344 190.389,286.156 190.389 C 285.965 190.389,285.812 190.592,285.812 190.847 C 285.812 191.098,285.709 191.304,285.584 191.304 C 285.458 191.304,285.355 191.665,285.355 192.105 C 285.355 192.546,285.252 192.906,285.126 192.906 C 284.985 192.906,284.897 194.050,284.897 195.881 C 284.897 197.712,284.985 198.856,285.126 198.856 C 285.252 198.856,285.355 199.062,285.355 199.314 C 285.355 199.649,285.507 199.771,285.927 199.771 C 286.241 199.771,286.499 199.881,286.499 200.016 C 286.499 200.718,287.174 200.915,289.572 200.915 C 291.032 200.915,291.991 200.825,291.991 200.686 C 291.991 200.561,292.189 200.458,292.432 200.458 C 292.675 200.458,293.028 200.303,293.217 200.114 C 293.406 199.926,293.624 199.771,293.701 199.771 C 293.986 199.771,294.966 198.637,294.966 198.308 C 294.966 198.121,295.069 197.904,295.195 197.826 C 295.320 197.748,295.423 197.382,295.423 197.012 C 295.423 196.642,295.526 196.339,295.652 196.339 C 295.778 196.339,295.881 195.816,295.881 195.178 C 295.881 194.452,296.009 193.889,296.224 193.674 C 296.414 193.485,296.568 192.925,296.568 192.425 C 296.568 191.831,296.449 191.473,296.224 191.387 C 296.027 191.312,295.881 190.970,295.881 190.586 C 295.881 189.528,294.548 188.330,293.371 188.330 C 292.864 188.330,292.449 188.227,292.449 188.101 C 292.449 187.975,291.985 187.872,291.419 187.872 C 290.852 187.872,290.389 187.975,290.389 188.101 M302.517 188.101 C 302.517 188.227,301.974 188.330,301.309 188.330 C 300.364 188.330,300.029 188.429,299.771 188.787 C 299.590 189.039,299.265 189.245,299.050 189.245 C 298.834 189.245,298.585 189.477,298.495 189.760 C 298.406 190.043,298.141 190.441,297.908 190.645 C 297.674 190.848,297.483 191.286,297.483 191.617 C 297.483 191.949,297.380 192.220,297.254 192.220 C 297.128 192.220,297.025 192.683,297.025 193.249 C 297.025 193.816,296.922 194.279,296.796 194.279 C 296.663 194.279,296.568 195.042,296.568 196.110 C 296.568 197.178,296.663 197.941,296.796 197.941 C 296.922 197.941,297.025 198.208,297.025 198.535 C 297.025 199.167,298.194 200.458,298.766 200.458 C 298.941 200.458,299.085 200.561,299.085 200.686 C 299.085 200.827,300.229 200.915,302.059 200.915 C 303.756 200.915,305.034 200.823,305.034 200.701 C 305.034 200.583,305.369 200.454,305.778 200.415 C 306.416 200.353,306.532 200.245,306.597 199.657 C 306.638 199.279,306.766 198.872,306.883 198.753 C 307.202 198.424,307.136 197.492,306.767 197.123 C 306.398 196.754,304.577 196.673,304.577 197.025 C 304.577 197.154,303.928 197.254,303.089 197.254 C 302.250 197.254,301.602 197.154,301.602 197.025 C 301.602 196.899,301.447 196.796,301.259 196.796 C 301.068 196.796,300.915 196.593,300.915 196.339 C 300.915 195.903,301.068 195.881,304.135 195.881 C 306.621 195.881,307.430 195.806,307.682 195.554 C 308.073 195.163,308.164 190.389,307.780 190.389 C 307.654 190.389,307.551 190.176,307.551 189.915 C 307.551 189.308,307.031 188.787,306.424 188.787 C 306.163 188.787,305.950 188.684,305.950 188.558 C 305.950 188.432,305.538 188.330,305.034 188.330 C 304.531 188.330,304.119 188.227,304.119 188.101 C 304.119 187.975,303.759 187.872,303.318 187.872 C 302.878 187.872,302.517 187.975,302.517 188.101 M341.876 188.101 C 341.876 188.227,341.413 188.330,340.847 188.330 C 340.280 188.330,339.817 188.432,339.817 188.558 C 339.817 188.684,339.611 188.787,339.359 188.787 C 339.108 188.787,338.902 188.890,338.902 189.016 C 338.902 189.142,338.791 189.245,338.656 189.245 C 338.340 189.245,337.757 189.827,337.757 190.144 C 337.757 190.279,337.654 190.389,337.529 190.389 C 337.403 190.389,337.300 190.595,337.300 190.847 C 337.300 191.098,337.197 191.304,337.071 191.304 C 336.945 191.304,336.842 191.665,336.842 192.105 C 336.842 192.546,336.739 192.906,336.613 192.906 C 336.473 192.906,336.384 194.012,336.384 195.766 L 336.384 198.626 337.273 199.542 C 337.762 200.046,338.328 200.458,338.532 200.458 C 338.735 200.458,338.902 200.561,338.902 200.686 C 338.902 200.823,339.779 200.915,341.076 200.915 C 342.372 200.915,343.249 200.823,343.249 200.686 C 343.249 200.561,343.519 200.458,343.848 200.458 C 344.763 200.458,346.911 198.112,346.911 197.113 C 346.911 196.939,347.014 196.796,347.140 196.796 C 347.265 196.796,347.368 196.230,347.368 195.538 C 347.368 194.846,347.471 194.279,347.597 194.279 C 347.729 194.279,347.826 193.555,347.826 192.563 C 347.826 191.571,347.729 190.847,347.597 190.847 C 347.471 190.847,347.368 190.636,347.368 190.379 C 347.368 189.892,346.423 188.787,346.006 188.787 C 345.874 188.787,345.767 188.684,345.767 188.558 C 345.767 188.432,345.361 188.330,344.865 188.330 C 344.369 188.330,343.899 188.227,343.822 188.101 C 343.744 187.975,343.274 187.872,342.778 187.872 C 342.282 187.872,341.876 187.975,341.876 188.101 M320.137 194.311 C 320.137 201.312,319.980 200.901,322.654 200.901 C 324.341 200.901,325.172 200.614,325.172 200.032 C 325.172 199.889,325.275 199.771,325.400 199.771 C 325.526 199.771,325.629 199.565,325.629 199.314 C 325.629 199.062,325.732 198.856,325.858 198.856 C 325.984 198.856,326.087 198.647,326.087 198.391 C 326.087 198.135,326.241 197.867,326.430 197.794 C 326.626 197.719,326.773 197.378,326.773 197.001 C 326.773 196.637,326.876 196.339,327.002 196.339 C 327.128 196.339,327.231 196.699,327.231 197.140 C 327.231 197.580,327.334 197.941,327.460 197.941 C 327.586 197.941,327.689 198.439,327.689 199.049 C 327.689 200.627,328.085 200.917,330.224 200.908 C 331.890 200.901,332.723 200.609,332.723 200.032 C 332.723 199.889,332.826 199.771,332.952 199.771 C 333.078 199.771,333.181 199.576,333.181 199.338 C 333.181 199.100,333.335 198.846,333.524 198.773 C 333.725 198.696,333.867 198.353,333.867 197.948 C 333.867 197.566,333.970 197.254,334.096 197.254 C 334.222 197.254,334.325 196.945,334.325 196.568 C 334.325 196.190,334.428 195.881,334.554 195.881 C 334.680 195.881,334.783 195.624,334.783 195.309 C 334.783 194.994,334.886 194.737,335.011 194.737 C 335.137 194.737,335.240 194.428,335.240 194.050 C 335.240 193.673,335.343 193.364,335.469 193.364 C 335.595 193.364,335.698 193.014,335.698 192.587 C 335.698 192.108,335.829 191.761,336.041 191.679 C 336.242 191.602,336.384 191.259,336.384 190.854 C 336.384 190.472,336.487 190.160,336.613 190.160 C 336.739 190.160,336.842 189.748,336.842 189.245 L 336.842 188.330 334.881 188.330 C 332.679 188.330,332.265 188.544,332.265 189.686 C 332.265 190.073,332.162 190.389,332.037 190.389 C 331.911 190.389,331.808 190.698,331.808 191.076 C 331.808 191.453,331.705 191.762,331.579 191.762 C 331.453 191.762,331.350 191.960,331.350 192.201 C 331.350 192.799,331.116 193.364,330.868 193.364 C 330.756 193.364,330.664 193.003,330.664 192.563 C 330.664 192.122,330.567 191.762,330.448 191.762 C 330.329 191.762,330.201 191.324,330.162 190.789 L 330.092 189.817 328.204 189.750 C 326.627 189.695,326.316 189.742,326.316 190.037 C 326.316 190.230,326.205 190.389,326.071 190.389 C 325.634 190.389,325.172 191.028,325.172 191.631 C 325.172 191.955,325.069 192.220,324.943 192.220 C 324.817 192.220,324.714 192.477,324.714 192.792 C 324.714 193.106,324.611 193.364,324.485 193.364 C 324.346 193.364,324.256 192.372,324.256 190.847 L 324.256 188.330 322.197 188.330 L 320.137 188.330 320.137 194.311 M220.862 193.192 C 220.820 193.979,220.691 194.720,220.576 194.840 C 220.460 194.959,220.366 195.551,220.366 196.156 C 220.366 197.350,219.678 197.673,218.707 196.935 C 218.165 196.524,218.118 193.485,218.650 193.281 C 218.839 193.209,218.993 192.987,218.993 192.789 C 218.993 192.204,219.517 191.780,220.252 191.770 L 220.938 191.761 220.862 193.192 M233.083 192.089 C 233.686 192.692,233.441 192.906,232.151 192.906 C 231.185 192.906,230.892 192.826,230.892 192.563 C 230.892 192.374,231.047 192.220,231.236 192.220 C 231.424 192.220,231.579 192.117,231.579 191.991 C 231.579 191.644,232.711 191.717,233.083 192.089 M279.863 192.792 C 279.863 193.358,279.760 193.822,279.634 193.822 C 279.508 193.822,279.405 194.388,279.405 195.080 C 279.405 195.772,279.302 196.339,279.176 196.339 C 279.050 196.339,278.947 196.545,278.947 196.796 C 278.947 197.355,277.734 197.447,277.215 196.927 C 276.846 196.558,276.764 194.737,277.117 194.737 C 277.243 194.737,277.346 194.325,277.346 193.822 C 277.346 193.318,277.449 192.906,277.574 192.906 C 277.700 192.906,277.803 192.799,277.803 192.668 C 277.803 192.183,278.396 191.779,279.119 191.771 C 279.849 191.762,279.863 191.781,279.863 192.792 M291.664 192.089 C 292.033 192.458,292.114 194.279,291.762 194.279 C 291.636 194.279,291.533 194.629,291.533 195.056 C 291.533 195.535,291.402 195.882,291.190 195.964 C 291.001 196.036,290.847 196.253,290.847 196.446 C 290.847 196.702,290.601 196.796,289.931 196.796 L 289.016 196.796 289.016 195.767 C 289.016 195.200,289.119 194.737,289.245 194.737 C 289.371 194.737,289.474 194.325,289.474 193.822 C 289.474 193.318,289.577 192.906,289.703 192.906 C 289.828 192.906,289.931 192.799,289.931 192.668 C 289.931 191.893,291.083 191.508,291.664 192.089 M303.719 192.081 C 304.454 192.639,304.176 192.906,302.860 192.906 C 301.587 192.906,301.352 192.713,301.888 192.104 C 302.248 191.695,303.194 191.683,303.719 192.081 M342.923 192.089 C 343.297 192.463,343.381 194.737,343.021 194.737 C 342.895 194.737,342.792 195.053,342.792 195.440 C 342.792 196.649,341.591 197.313,340.740 196.574 C 340.261 196.159,340.096 195.195,340.503 195.195 C 340.629 195.195,340.732 194.783,340.732 194.279 C 340.732 193.776,340.828 193.364,340.946 193.364 C 341.063 193.364,341.230 193.140,341.317 192.867 C 341.652 191.809,342.320 191.486,342.923 192.089 M363.387 191.991 C 363.387 192.117,363.284 192.220,363.158 192.220 C 363.027 192.220,362.929 192.906,362.929 193.822 C 362.929 194.737,362.831 195.423,362.700 195.423 C 362.574 195.423,362.471 195.835,362.471 196.339 C 362.471 197.343,361.488 197.677,360.739 196.927 C 360.360 196.548,360.274 193.822,360.641 193.822 C 360.767 193.822,360.870 193.461,360.870 193.021 C 360.870 192.461,360.973 192.220,361.213 192.220 C 361.402 192.220,361.556 192.117,361.556 191.991 C 361.556 191.865,361.968 191.762,362.471 191.762 C 362.975 191.762,363.387 191.865,363.387 191.991 M262.243 196.796 C 262.243 197.048,262.140 197.254,262.014 197.254 C 261.880 197.254,261.785 198.017,261.785 199.085 L 261.785 200.915 263.730 200.915 L 265.675 200.915 265.675 200.114 C 265.675 199.674,265.778 199.314,265.904 199.314 C 266.033 199.314,266.133 198.665,266.133 197.826 L 266.133 196.339 264.188 196.339 C 262.395 196.339,262.243 196.375,262.243 196.796 M308.619 196.491 C 308.535 196.575,308.467 196.936,308.467 197.292 C 308.467 197.649,308.359 197.941,308.227 197.941 C 308.078 197.941,308.013 198.483,308.055 199.371 L 308.124 200.801 310.126 200.867 L 312.128 200.933 312.128 200.352 C 312.128 200.033,312.231 199.771,312.357 199.771 C 312.489 199.771,312.586 199.047,312.586 198.055 L 312.586 196.339 310.679 196.339 C 309.630 196.339,308.703 196.407,308.619 196.491 M367.963 197.368 C 367.963 197.936,367.855 198.398,367.723 198.398 C 367.576 198.398,367.509 198.868,367.551 199.600 L 367.620 200.801 369.422 200.868 C 371.895 200.961,372.082 200.776,372.082 198.248 L 372.082 196.339 370.023 196.339 L 367.963 196.339 367.963 197.368 " stroke="none" fill="#cc0474" fill-rule="evenodd"></path><path id="path2" d="M213.959 43.021 L 213.959 57.666 228.719 57.666 L 243.478 57.666 243.478 43.021 L 243.478 28.375 228.719 28.375 L 213.959 28.375 213.959 43.021 M214.111 85.507 C 214.027 85.591,213.959 92.285,213.959 100.381 L 213.959 115.103 228.719 115.103 L 243.478 115.103 243.478 100.229 L 243.478 85.355 228.871 85.355 C 220.837 85.355,214.195 85.423,214.111 85.507 " stroke="none" fill="#bccc04" fill-rule="evenodd"></path><path id="path3" d="M28.375 174.600 L 28.375 177.574 31.236 177.574 L 34.096 177.574 34.096 174.600 L 34.096 171.625 33.295 171.625 L 32.494 171.625 32.494 173.913 L 32.494 176.201 31.465 176.201 L 30.435 176.201 30.435 173.913 L 30.435 171.625 29.405 171.625 L 28.375 171.625 28.375 174.600 M34.554 174.600 L 34.554 177.574 36.499 177.574 C 37.643 177.574,38.444 177.480,38.444 177.346 C 38.444 177.220,38.561 177.117,38.705 177.117 C 39.286 177.117,39.574 176.283,39.581 174.580 C 39.591 172.134,39.041 171.625,36.386 171.625 L 34.554 171.625 34.554 174.600 M41.648 172.883 C 41.648 173.576,41.751 174.142,41.876 174.142 C 42.002 174.142,42.105 174.430,42.105 174.783 C 42.105 175.135,42.201 175.521,42.318 175.641 C 42.435 175.760,42.563 176.219,42.604 176.659 L 42.677 177.460 44.108 177.528 L 45.538 177.596 45.538 176.899 C 45.538 176.515,45.641 176.201,45.767 176.201 C 45.892 176.201,45.995 175.852,45.995 175.425 C 45.995 174.946,46.127 174.598,46.339 174.517 C 46.591 174.420,46.682 174.021,46.682 173.005 L 46.682 171.625 45.652 171.625 L 44.622 171.625 44.622 172.654 C 44.622 173.221,44.519 173.684,44.394 173.684 C 44.268 173.684,44.165 173.581,44.165 173.455 C 44.165 173.330,44.010 173.227,43.822 173.227 C 43.582 173.227,43.478 172.985,43.478 172.426 C 43.478 171.644,43.456 171.625,42.563 171.625 L 41.648 171.625 41.648 172.883 M47.750 171.777 C 47.666 171.861,47.597 172.222,47.597 172.578 C 47.597 172.935,47.494 173.227,47.368 173.227 C 47.243 173.227,47.140 173.632,47.140 174.128 C 47.140 174.624,47.037 175.094,46.911 175.172 C 46.785 175.249,46.682 175.822,46.682 176.444 L 46.682 177.574 47.597 177.574 C 48.462 177.574,48.513 177.536,48.513 176.888 C 48.513 176.308,48.602 176.201,49.085 176.201 C 49.568 176.201,49.657 176.308,49.657 176.888 L 49.657 177.574 51.602 177.574 L 53.547 177.574 53.547 176.872 C 53.547 176.247,53.585 176.207,53.890 176.512 C 54.079 176.701,54.233 177.017,54.233 177.215 C 54.233 177.498,54.500 177.574,55.492 177.574 L 56.751 177.574 56.751 174.600 L 56.751 171.625 55.950 171.625 C 55.187 171.625,55.149 171.663,55.149 172.426 C 55.149 173.215,54.698 173.604,54.684 172.826 C 54.669 171.992,54.121 171.625,52.892 171.625 L 51.716 171.625 51.716 173.586 C 51.716 175.330,51.678 175.509,51.373 175.204 C 51.184 175.016,51.030 174.493,51.030 174.044 C 51.030 173.594,50.927 173.227,50.801 173.227 C 50.675 173.227,50.572 172.866,50.572 172.426 L 50.572 171.625 49.237 171.625 C 48.503 171.625,47.834 171.693,47.750 171.777 M59.268 174.600 L 59.268 177.574 61.162 177.574 C 62.794 177.574,63.103 177.511,63.387 177.117 C 63.803 176.539,64.032 176.541,64.539 177.126 C 65.214 177.904,68.764 177.704,68.764 176.888 C 68.764 176.385,68.653 176.307,67.849 176.243 C 66.634 176.147,66.227 175.744,67.346 175.744 L 68.192 175.744 68.192 174.714 C 68.192 173.690,68.188 173.684,67.391 173.684 C 66.951 173.684,66.590 173.581,66.590 173.455 C 66.590 173.330,66.951 173.214,67.391 173.198 C 67.832 173.182,68.321 173.156,68.478 173.141 C 68.637 173.125,68.764 172.807,68.764 172.426 L 68.764 171.739 66.869 171.673 C 64.886 171.603,64.302 171.828,64.302 172.662 C 64.302 172.946,64.130 172.861,63.638 172.335 C 63.001 171.654,62.899 171.625,61.121 171.625 L 59.268 171.625 59.268 174.600 M71.854 172.415 C 71.854 172.861,71.751 173.227,71.625 173.227 C 71.499 173.227,71.396 173.627,71.396 174.117 C 71.396 174.698,71.276 175.054,71.053 175.140 C 70.810 175.233,70.709 175.611,70.709 176.423 L 70.709 177.574 71.739 177.574 C 72.731 177.574,72.769 177.549,72.769 176.888 C 72.769 176.308,72.858 176.201,73.341 176.201 C 73.824 176.201,73.913 176.308,73.913 176.888 L 73.913 177.574 76.888 177.574 C 79.710 177.574,79.863 177.551,79.863 177.117 C 79.863 176.865,79.966 176.659,80.092 176.659 C 80.217 176.659,80.320 176.865,80.320 177.117 C 80.320 177.534,80.473 177.574,82.053 177.574 C 83.835 177.574,84.439 177.318,84.439 176.561 C 84.439 176.363,84.542 176.201,84.668 176.201 C 84.794 176.201,84.897 176.363,84.897 176.561 C 84.897 177.545,88.300 178.094,89.147 177.247 C 89.679 176.715,89.606 172.502,89.055 172.003 C 88.016 171.063,84.897 171.625,84.897 172.753 C 84.897 173.013,84.794 173.227,84.668 173.227 C 84.542 173.227,84.431 173.561,84.421 173.970 C 84.411 174.379,84.351 174.585,84.288 174.428 C 84.224 174.271,84.019 174.142,83.832 174.142 C 83.509 174.142,82.838 173.622,82.838 173.372 C 82.838 173.308,83.172 173.223,83.581 173.184 C 84.237 173.121,84.333 173.023,84.397 172.359 L 84.470 171.606 82.452 171.673 L 80.435 171.739 80.366 173.060 C 80.299 174.345,80.594 175.057,81.195 175.057 C 81.316 175.057,81.475 175.212,81.547 175.400 C 81.620 175.589,81.837 175.744,82.029 175.744 C 82.222 175.744,82.380 175.847,82.380 175.973 C 82.380 176.098,81.916 176.201,81.350 176.201 C 80.583 176.201,80.320 176.113,80.320 175.855 C 80.320 175.072,79.274 173.684,78.683 173.684 C 78.451 173.684,78.261 173.581,78.261 173.455 C 78.261 173.330,78.621 173.227,79.062 173.227 C 79.826 173.227,79.863 173.190,79.863 172.417 L 79.863 171.607 77.860 171.673 L 75.858 171.739 75.790 173.169 C 75.746 174.093,75.810 174.600,75.972 174.600 C 76.110 174.600,76.480 174.857,76.794 175.172 C 77.109 175.486,77.465 175.744,77.585 175.744 C 77.705 175.744,77.803 175.847,77.803 175.973 C 77.803 176.098,77.340 176.201,76.773 176.201 C 75.907 176.201,75.744 176.131,75.744 175.757 C 75.744 175.513,75.641 175.249,75.515 175.172 C 75.389 175.094,75.286 174.624,75.286 174.128 C 75.286 173.632,75.190 173.227,75.072 173.227 C 74.954 173.227,74.825 172.892,74.786 172.483 C 74.714 171.739,74.714 171.739,73.284 171.671 L 71.854 171.603 71.854 172.415 M90.217 172.072 C 89.798 172.748,89.831 176.820,90.258 177.247 C 90.484 177.473,91.121 177.574,92.318 177.574 L 94.050 177.574 94.050 176.888 C 94.050 176.274,93.976 176.201,93.347 176.201 C 91.632 176.201,91.329 173.438,93.021 173.227 C 93.860 173.122,93.936 173.055,93.936 172.426 L 93.936 171.739 92.220 171.674 C 90.706 171.617,90.470 171.664,90.217 172.072 M94.508 174.586 L 94.508 177.574 95.404 177.574 C 95.907 177.574,96.351 177.449,96.416 177.288 C 96.508 177.059,96.535 177.059,96.549 177.288 C 96.595 178.010,98.398 177.619,98.398 176.888 C 98.398 176.308,98.487 176.201,98.970 176.201 C 99.453 176.201,99.542 176.308,99.542 176.888 C 99.542 177.552,99.577 177.574,100.602 177.574 L 101.661 177.574 101.540 176.495 C 101.473 175.901,101.305 175.378,101.167 175.332 C 101.028 175.286,100.915 174.896,100.915 174.466 C 100.915 174.036,100.818 173.684,100.700 173.684 C 100.581 173.684,100.452 173.247,100.414 172.712 L 100.343 171.739 98.913 171.671 L 97.483 171.603 97.483 172.415 C 97.483 172.861,97.380 173.227,97.254 173.227 C 97.128 173.227,97.025 173.535,97.025 173.913 C 97.025 175.231,96.589 174.587,96.521 173.169 L 96.453 171.739 95.481 171.669 L 94.508 171.598 94.508 174.586 M101.068 171.777 C 100.487 172.358,101.092 173.227,102.078 173.227 C 102.480 173.227,102.517 173.410,102.517 175.400 L 102.517 177.574 103.547 177.574 L 104.577 177.574 104.577 175.400 L 104.577 173.227 105.263 173.227 L 105.950 173.227 105.950 175.400 L 105.950 177.574 106.979 177.574 L 108.009 177.574 108.009 174.600 L 108.009 171.625 104.615 171.625 C 102.748 171.625,101.152 171.693,101.068 171.777 M108.741 171.899 C 108.453 172.187,108.343 176.527,108.606 177.212 C 108.717 177.503,109.125 177.574,110.665 177.574 L 112.586 177.574 112.586 176.888 C 112.586 176.227,112.548 176.201,111.556 176.201 C 110.990 176.201,110.526 176.098,110.526 175.973 C 110.526 175.847,110.866 175.744,111.281 175.744 C 112.236 175.744,112.586 175.394,112.586 174.439 C 112.586 173.697,112.568 173.684,111.556 173.684 C 110.249 173.684,110.203 173.276,111.499 173.182 C 112.412 173.116,112.476 173.066,112.543 172.368 L 112.615 171.625 110.815 171.625 C 109.721 171.625,108.908 171.732,108.741 171.899 M115.103 174.273 C 115.103 177.519,115.141 177.574,117.391 177.574 C 119.140 177.574,119.680 177.308,119.680 176.447 C 119.680 176.186,119.783 175.973,119.908 175.973 C 120.034 175.973,120.137 176.333,120.137 176.773 C 120.137 177.570,120.143 177.574,121.167 177.574 C 122.119 177.574,122.197 177.530,122.197 176.989 C 122.197 176.657,122.296 176.464,122.426 176.545 C 122.551 176.622,122.654 176.886,122.654 177.130 C 122.654 177.516,122.820 177.574,123.913 177.574 L 125.172 177.574 125.172 174.600 L 125.172 171.625 124.161 171.625 C 123.576 171.625,123.094 171.745,123.017 171.911 C 122.910 172.140,122.857 172.140,122.750 171.911 C 122.656 171.710,121.939 171.625,120.347 171.625 L 118.078 171.625 118.078 173.327 C 118.078 174.264,117.975 175.094,117.849 175.172 C 117.723 175.249,117.620 175.513,117.620 175.757 C 117.620 176.002,117.517 176.201,117.391 176.201 C 117.254 176.201,117.162 175.286,117.162 173.913 L 117.162 171.625 116.133 171.625 L 115.103 171.625 115.103 174.273 M125.629 174.600 L 125.629 177.574 126.659 177.574 L 127.689 177.574 127.689 175.501 C 127.689 174.178,127.771 173.479,127.918 173.570 C 128.043 173.648,128.146 174.059,128.146 174.485 C 128.146 174.911,128.236 175.314,128.346 175.382 C 128.455 175.450,128.608 175.822,128.686 176.210 C 128.953 177.543,131.808 178.385,131.808 177.130 C 131.808 176.886,131.911 176.622,132.037 176.545 C 132.162 176.467,132.265 175.997,132.265 175.501 C 132.265 175.005,132.368 174.600,132.494 174.600 C 132.620 174.600,132.723 174.136,132.723 173.570 C 132.723 171.394,133.168 172.649,133.230 175.000 L 133.295 177.460 136.327 177.524 L 139.359 177.588 139.359 176.895 C 139.359 176.513,139.462 176.201,139.588 176.201 C 139.714 176.201,139.817 176.363,139.817 176.561 C 139.817 177.625,145.429 178.158,146.492 177.196 C 146.882 176.843,146.911 176.843,146.911 177.196 C 146.911 177.492,147.135 177.574,147.941 177.574 L 148.970 177.574 148.970 175.400 L 148.970 173.227 149.657 173.227 L 150.343 173.227 150.343 175.400 L 150.343 177.574 151.373 177.574 L 152.403 177.574 152.403 175.425 L 152.403 173.277 153.204 173.183 L 154.005 173.090 154.005 175.332 L 154.005 177.574 155.950 177.574 L 157.895 177.574 157.895 176.888 C 157.895 176.227,157.857 176.201,156.865 176.201 C 156.299 176.201,155.835 176.098,155.835 175.973 C 155.835 175.847,156.136 175.744,156.503 175.744 C 157.654 175.744,157.895 175.541,157.895 174.575 L 157.895 173.684 156.865 173.684 C 155.558 173.684,155.511 173.276,156.808 173.182 C 157.717 173.117,157.785 173.064,157.851 172.381 L 157.922 171.649 152.416 171.638 L 146.911 171.627 146.911 173.340 L 146.911 175.053 146.257 174.369 C 145.897 173.992,145.434 173.684,145.227 173.684 C 144.530 173.684,144.845 173.256,145.595 173.184 C 146.249 173.121,146.347 173.022,146.410 172.368 L 146.482 171.625 144.721 171.625 C 143.225 171.625,142.898 171.696,142.549 172.098 L 142.138 172.572 141.887 172.102 C 141.642 171.645,141.478 171.633,136.206 171.685 L 130.778 171.739 130.708 172.712 C 130.639 173.663,130.206 174.118,130.206 173.240 C 130.206 172.996,130.103 172.732,129.977 172.654 C 129.851 172.577,129.748 172.313,129.748 172.069 C 129.748 171.662,129.575 171.625,127.689 171.625 L 125.629 171.625 125.629 174.600 M158.352 174.600 L 158.352 177.574 159.382 177.574 L 160.412 177.574 160.412 175.400 C 160.412 173.234,160.414 173.227,160.984 173.227 C 161.554 173.227,161.556 173.234,161.556 175.400 L 161.556 177.574 162.471 177.574 L 163.387 177.574 163.387 175.415 L 163.387 173.256 164.130 173.184 C 164.784 173.121,164.883 173.022,164.946 172.368 L 165.018 171.625 161.685 171.625 L 158.352 171.625 158.352 174.600 M167.506 172.082 C 167.506 172.334,167.403 172.540,167.277 172.540 C 167.141 172.540,167.048 173.379,167.048 174.600 C 167.048 175.732,167.139 176.659,167.250 176.659 C 167.361 176.659,167.506 176.865,167.572 177.117 C 167.680 177.530,167.884 177.574,169.658 177.574 L 171.625 177.574 171.625 175.858 L 171.625 174.142 170.595 174.142 C 169.571 174.142,169.565 174.146,169.565 174.943 C 169.565 175.383,169.462 175.744,169.336 175.744 C 169.003 175.744,169.056 173.783,169.396 173.500 C 169.555 173.369,170.096 173.227,170.598 173.186 C 171.442 173.118,171.516 173.056,171.582 172.368 L 171.654 171.625 169.580 171.625 C 167.658 171.625,167.506 171.658,167.506 172.082 M172.368 171.967 C 171.943 172.450,171.977 176.815,172.409 177.247 C 172.631 177.469,173.257 177.574,174.354 177.574 L 175.973 177.574 175.973 176.888 C 175.973 176.240,175.922 176.201,175.057 176.201 C 173.899 176.201,173.853 175.795,175.000 175.700 C 175.833 175.631,175.860 175.601,175.928 174.657 L 175.999 173.684 175.070 173.684 C 174.560 173.684,174.142 173.581,174.142 173.455 C 174.142 173.330,174.554 173.227,175.057 173.227 C 175.951 173.227,175.973 173.207,175.973 172.426 L 175.973 171.625 174.314 171.633 C 173.176 171.639,172.564 171.744,172.368 171.967 M176.659 174.600 L 176.659 177.574 177.574 177.574 C 178.359 177.574,178.490 177.504,178.490 177.082 L 178.490 176.589 178.917 177.082 C 179.251 177.467,179.601 177.574,180.519 177.574 L 181.693 177.574 181.693 175.400 L 181.693 173.227 182.380 173.227 L 183.066 173.227 183.066 175.400 L 183.066 177.574 184.096 177.574 L 185.126 177.574 185.126 175.400 C 185.126 173.379,185.158 173.227,185.584 173.227 C 185.954 173.227,186.041 173.074,186.041 172.425 L 186.041 171.623 182.851 171.639 L 179.661 171.655 179.575 172.383 L 179.490 173.112 179.196 172.368 C 178.921 171.670,178.834 171.625,177.781 171.625 L 176.659 171.625 176.659 174.600 M137.300 173.341 C 137.300 173.595,137.033 173.684,136.270 173.684 C 134.964 173.684,134.919 173.282,136.213 173.165 C 136.748 173.117,137.211 173.060,137.243 173.038 C 137.274 173.016,137.300 173.152,137.300 173.341 M37.202 173.553 C 37.816 174.167,37.464 176.201,36.744 176.201 C 36.672 176.201,36.613 175.532,36.613 174.714 C 36.613 173.147,36.675 173.026,37.202 173.553 M61.916 173.553 C 62.591 174.229,62.165 176.201,61.344 176.201 C 61.194 176.201,61.098 175.619,61.098 174.714 C 61.098 173.197,61.289 172.927,61.916 173.553 M139.877 173.363 C 140.061 173.547,139.821 174.142,139.564 174.142 C 139.451 174.142,139.359 173.936,139.359 173.684 C 139.359 173.238,139.602 173.088,139.877 173.363 M87.324 175.681 C 86.736 176.269,86.323 174.487,86.899 173.847 C 87.288 173.416,87.302 173.435,87.371 174.483 C 87.409 175.078,87.389 175.617,87.324 175.681 M142.792 174.828 C 142.792 174.954,143.049 175.057,143.364 175.057 C 143.720 175.057,143.936 175.187,143.936 175.400 C 143.936 175.589,144.039 175.744,144.165 175.744 C 144.291 175.744,144.394 175.847,144.394 175.973 C 144.394 176.098,143.839 176.201,143.162 176.201 C 141.906 176.201,141.511 175.810,141.822 174.877 C 141.933 174.544,142.792 174.501,142.792 174.828 M137.300 175.858 C 137.300 176.112,137.033 176.201,136.270 176.201 C 135.086 176.201,134.875 175.818,135.984 175.680 C 136.393 175.630,136.856 175.572,137.014 175.551 C 137.171 175.531,137.300 175.669,137.300 175.858 " stroke="none" fill="#acacac" fill-rule="evenodd"></path><path id="path4" d="M138.330 27.689 C 138.252 27.815,137.420 27.918,136.482 27.918 C 135.544 27.918,134.598 28.015,134.379 28.135 C 134.161 28.254,133.493 28.415,132.895 28.492 C 132.297 28.569,131.808 28.729,131.808 28.847 C 131.808 28.965,131.447 29.062,131.007 29.062 C 130.566 29.062,130.206 29.165,130.206 29.291 C 130.206 29.416,129.852 29.519,129.419 29.519 C 128.985 29.519,128.567 29.622,128.490 29.748 C 128.412 29.874,128.097 29.977,127.790 29.977 C 127.482 29.977,127.231 30.080,127.231 30.206 C 127.231 30.332,127.034 30.435,126.792 30.435 C 126.322 30.435,124.879 31.123,124.752 31.407 C 124.710 31.502,124.478 31.579,124.237 31.579 C 123.996 31.579,123.799 31.682,123.799 31.808 C 123.799 31.934,123.541 32.037,123.227 32.037 C 122.912 32.037,122.654 32.140,122.654 32.265 C 122.654 32.391,122.449 32.494,122.197 32.494 C 121.945 32.494,121.739 32.597,121.739 32.723 C 121.739 32.849,121.530 32.952,121.274 32.952 C 121.019 32.952,120.750 33.106,120.678 33.295 C 120.605 33.484,120.374 33.638,120.163 33.638 C 119.953 33.638,119.632 33.844,119.451 34.096 C 119.269 34.348,118.957 34.554,118.757 34.554 C 118.557 34.554,118.172 34.760,117.902 35.011 C 117.632 35.263,117.326 35.469,117.223 35.469 C 117.120 35.469,116.873 35.649,116.674 35.870 C 116.131 36.471,115.353 37.071,115.116 37.071 C 114.800 37.071,108.009 43.932,108.009 44.252 C 108.009 44.387,107.477 45.076,106.922 45.661 C 106.765 45.827,106.636 46.125,106.636 46.322 C 106.636 46.520,106.534 46.682,106.410 46.682 C 106.158 46.682,105.034 48.367,105.034 48.746 C 105.034 48.880,104.828 49.210,104.577 49.481 C 104.325 49.751,104.119 50.158,104.119 50.386 C 104.119 50.614,104.026 50.801,103.913 50.801 C 103.799 50.801,103.516 51.264,103.284 51.830 C 103.051 52.396,102.783 52.859,102.689 52.860 C 102.594 52.860,102.517 53.169,102.517 53.547 C 102.517 53.924,102.414 54.233,102.288 54.233 C 102.162 54.233,102.059 54.433,102.059 54.678 C 102.059 54.922,101.957 55.185,101.831 55.263 C 101.705 55.341,101.602 55.663,101.602 55.980 C 101.602 56.296,101.447 56.709,101.259 56.898 C 101.070 57.086,100.915 57.491,100.915 57.797 C 100.915 58.102,100.812 58.352,100.686 58.352 C 100.561 58.352,100.458 58.758,100.458 59.254 C 100.458 59.750,100.355 60.220,100.229 60.297 C 100.103 60.375,100.000 60.845,100.000 61.341 C 100.000 61.837,99.897 62.243,99.771 62.243 C 99.642 62.243,99.542 62.886,99.542 63.716 C 99.542 64.527,99.439 65.254,99.314 65.332 C 99.171 65.420,99.085 67.623,99.085 71.181 C 99.085 74.833,99.167 76.888,99.314 76.888 C 99.446 76.888,99.542 77.613,99.542 78.604 C 99.542 79.596,99.639 80.320,99.771 80.320 C 99.897 80.320,100.000 80.784,100.000 81.350 C 100.000 81.916,100.103 82.380,100.229 82.380 C 100.355 82.380,100.458 82.644,100.458 82.966 C 100.458 83.743,101.142 85.812,101.399 85.812 C 101.511 85.812,101.602 86.173,101.602 86.613 C 101.602 87.054,101.705 87.414,101.831 87.414 C 101.957 87.414,102.059 87.614,102.059 87.858 C 102.059 88.103,102.162 88.366,102.288 88.444 C 102.414 88.522,102.517 88.785,102.517 89.030 C 102.517 89.274,102.620 89.474,102.746 89.474 C 102.872 89.474,102.975 89.680,102.975 89.931 C 102.975 90.183,103.078 90.389,103.204 90.389 C 103.330 90.389,103.432 90.598,103.432 90.854 C 103.432 91.110,103.587 91.378,103.776 91.450 C 103.965 91.523,104.119 91.777,104.119 92.015 C 104.119 92.254,104.222 92.449,104.348 92.449 C 104.474 92.449,104.577 92.600,104.577 92.785 C 104.577 93.144,105.335 94.591,105.790 95.101 C 106.462 95.854,106.636 96.106,106.636 96.329 C 106.636 96.460,106.739 96.568,106.865 96.568 C 106.991 96.568,107.094 96.711,107.094 96.887 C 107.094 97.062,107.557 97.697,108.124 98.296 C 108.690 98.896,109.153 99.484,109.153 99.604 C 109.153 99.916,114.327 105.034,114.642 105.034 C 114.787 105.034,115.245 105.395,115.660 105.835 C 116.076 106.276,116.533 106.636,116.677 106.636 C 116.820 106.636,117.261 106.945,117.656 107.323 C 118.051 107.700,118.565 108.009,118.798 108.009 C 119.031 108.009,119.222 108.164,119.222 108.352 C 119.222 108.543,119.425 108.696,119.680 108.696 C 119.931 108.696,120.137 108.799,120.137 108.924 C 120.137 109.050,120.292 109.153,120.481 109.153 C 120.669 109.153,120.824 109.256,120.824 109.382 C 120.824 109.508,121.030 109.611,121.281 109.611 C 121.533 109.611,121.739 109.714,121.739 109.840 C 121.739 109.966,121.945 110.069,122.197 110.069 C 122.449 110.069,122.654 110.172,122.654 110.297 C 122.654 110.423,122.912 110.526,123.227 110.526 C 123.541 110.526,123.799 110.622,123.799 110.738 C 123.799 111.039,125.140 111.670,125.779 111.670 C 126.074 111.670,126.316 111.773,126.316 111.899 C 126.316 112.025,126.516 112.128,126.760 112.128 C 127.004 112.128,127.268 112.231,127.346 112.357 C 127.423 112.483,127.790 112.586,128.160 112.586 C 128.530 112.586,128.833 112.689,128.833 112.815 C 128.833 112.941,129.234 113.043,129.724 113.043 C 130.305 113.043,130.660 113.163,130.746 113.387 C 130.833 113.612,131.190 113.730,131.787 113.730 C 132.287 113.730,132.760 113.833,132.838 113.959 C 132.915 114.085,133.488 114.188,134.110 114.188 C 134.731 114.188,135.240 114.291,135.240 114.416 C 135.240 114.554,136.156 114.645,137.529 114.645 C 138.902 114.645,139.817 114.737,139.817 114.874 C 139.817 115.025,147.674 115.103,162.929 115.103 L 186.041 115.103 186.041 89.931 C 186.041 73.303,185.964 64.760,185.812 64.760 C 185.683 64.760,185.584 64.111,185.584 63.272 C 185.584 62.433,185.484 61.785,185.355 61.785 C 185.229 61.785,185.126 61.322,185.126 60.755 C 185.126 60.189,185.023 59.725,184.897 59.725 C 184.771 59.725,184.668 59.371,184.668 58.938 C 184.668 58.505,184.565 58.087,184.439 58.009 C 184.314 57.931,184.211 57.624,184.211 57.325 C 184.211 57.027,184.056 56.629,183.867 56.440 C 183.678 56.251,183.524 55.883,183.524 55.623 C 183.524 55.362,183.421 55.149,183.295 55.149 C 183.169 55.149,183.066 54.840,183.066 54.462 C 183.066 54.085,182.963 53.776,182.838 53.776 C 182.712 53.776,182.609 53.576,182.609 53.332 C 182.609 53.087,182.506 52.824,182.380 52.746 C 182.254 52.668,182.151 52.405,182.151 52.160 C 182.151 51.916,182.048 51.716,181.922 51.716 C 181.796 51.716,181.693 51.507,181.693 51.251 C 181.693 50.996,181.539 50.727,181.350 50.655 C 181.161 50.582,181.007 50.328,181.007 50.090 C 181.007 49.852,180.904 49.657,180.778 49.657 C 180.652 49.657,180.549 49.451,180.549 49.199 C 180.549 48.947,180.462 48.741,180.356 48.741 C 180.250 48.741,179.925 48.278,179.634 47.712 C 179.343 47.145,178.966 46.682,178.797 46.682 C 178.628 46.682,178.490 46.495,178.490 46.267 C 178.490 46.039,178.284 45.632,178.032 45.362 C 177.780 45.091,177.574 44.763,177.574 44.631 C 177.574 44.254,169.832 36.613,169.450 36.613 C 169.262 36.613,169.108 36.510,169.108 36.384 C 169.108 36.259,168.994 36.156,168.854 36.156 C 168.715 36.156,168.399 35.898,168.151 35.584 C 167.904 35.269,167.554 35.011,167.375 35.011 C 167.195 35.011,167.048 34.908,167.048 34.783 C 167.048 34.657,166.894 34.554,166.705 34.554 C 166.516 34.554,166.362 34.451,166.362 34.325 C 166.362 34.199,166.156 34.096,165.904 34.096 C 165.652 34.096,165.446 33.993,165.446 33.867 C 165.446 33.741,165.326 33.638,165.178 33.638 C 165.031 33.638,164.748 33.492,164.549 33.312 C 163.955 32.777,161.544 31.579,161.059 31.579 C 160.811 31.579,160.453 31.424,160.263 31.234 C 160.073 31.044,159.833 30.940,159.731 31.003 C 159.628 31.067,159.485 30.965,159.413 30.777 C 159.341 30.589,159.079 30.435,158.831 30.435 C 158.583 30.435,158.316 30.332,158.238 30.206 C 158.160 30.080,157.794 29.977,157.424 29.977 C 157.053 29.977,156.751 29.874,156.751 29.748 C 156.751 29.622,156.442 29.519,156.064 29.519 C 155.686 29.519,155.378 29.416,155.378 29.291 C 155.378 29.165,154.914 29.062,154.348 29.062 C 153.781 29.062,153.318 28.965,153.318 28.847 C 153.318 28.729,152.829 28.569,152.231 28.492 C 151.633 28.415,150.965 28.254,150.747 28.135 C 150.528 28.015,149.685 27.918,148.872 27.918 C 148.060 27.918,147.332 27.815,147.254 27.689 C 147.168 27.549,145.425 27.460,142.792 27.460 C 140.158 27.460,138.416 27.549,138.330 27.689 M143.936 57.437 C 143.936 57.563,144.502 57.666,145.195 57.666 C 145.887 57.666,146.453 57.769,146.453 57.895 C 146.453 58.021,146.751 58.124,147.115 58.124 C 147.492 58.124,147.834 58.271,147.909 58.467 C 147.981 58.656,148.250 58.810,148.505 58.810 C 148.761 58.810,148.970 58.913,148.970 59.039 C 148.970 59.165,149.153 59.268,149.377 59.268 C 149.601 59.268,149.933 59.474,150.114 59.725 C 150.296 59.977,150.576 60.183,150.737 60.183 C 150.898 60.183,151.030 60.286,151.030 60.412 C 151.030 60.538,151.236 60.641,151.487 60.641 C 151.739 60.641,151.945 60.754,151.945 60.892 C 151.945 61.030,152.235 61.417,152.588 61.750 C 152.942 62.084,153.299 62.537,153.382 62.757 C 153.465 62.978,153.639 63.158,153.769 63.158 C 153.898 63.158,154.005 63.312,154.005 63.501 C 154.005 63.690,154.108 63.844,154.233 63.844 C 154.359 63.844,154.462 64.050,154.462 64.302 C 154.462 64.554,154.565 64.760,154.691 64.760 C 154.817 64.760,154.920 64.966,154.920 65.217 C 154.920 65.469,155.023 65.675,155.149 65.675 C 155.275 65.675,155.378 65.875,155.378 66.119 C 155.378 66.364,155.467 66.619,155.576 66.686 C 155.686 66.754,155.841 67.223,155.922 67.729 C 156.003 68.236,156.171 68.650,156.296 68.650 C 156.440 68.650,156.522 71.575,156.522 76.773 L 156.522 84.897 147.954 84.897 C 142.489 84.897,139.335 84.814,139.245 84.668 C 139.167 84.542,138.801 84.439,138.430 84.439 C 138.060 84.439,137.757 84.336,137.757 84.211 C 137.757 84.085,137.558 83.982,137.313 83.982 C 137.069 83.982,136.805 83.879,136.728 83.753 C 136.650 83.627,136.443 83.524,136.267 83.524 C 136.091 83.524,135.704 83.292,135.406 83.009 C 135.108 82.726,134.568 82.288,134.206 82.037 C 133.440 81.505,131.808 79.831,131.808 79.578 C 131.808 79.483,131.653 79.405,131.465 79.405 C 131.274 79.405,131.121 79.202,131.121 78.947 C 131.121 78.696,131.018 78.490,130.892 78.490 C 130.767 78.490,130.664 78.335,130.664 78.146 C 130.664 77.958,130.561 77.803,130.435 77.803 C 130.309 77.803,130.206 77.597,130.206 77.346 C 130.206 77.094,130.103 76.888,129.977 76.888 C 129.851 76.888,129.748 76.585,129.748 76.215 C 129.748 75.845,129.645 75.478,129.519 75.400 C 129.394 75.323,129.291 74.901,129.291 74.464 C 129.291 73.969,129.161 73.620,128.947 73.538 C 128.678 73.435,128.604 72.972,128.604 71.399 C 128.604 69.895,128.690 69.321,128.947 69.108 C 129.136 68.951,129.291 68.481,129.291 68.063 C 129.291 67.646,129.394 67.240,129.519 67.162 C 129.645 67.085,129.748 66.718,129.748 66.348 C 129.748 65.978,129.851 65.675,129.977 65.675 C 130.103 65.675,130.206 65.516,130.206 65.322 C 130.206 65.128,130.412 64.748,130.664 64.478 C 130.915 64.208,131.121 63.800,131.121 63.572 C 131.121 63.344,131.276 63.158,131.465 63.158 C 131.653 63.158,131.811 63.081,131.814 62.986 C 131.824 62.737,133.806 60.641,134.032 60.641 C 134.138 60.641,134.372 60.435,134.554 60.183 C 134.735 59.931,134.974 59.725,135.084 59.725 C 135.194 59.725,135.564 59.526,135.905 59.283 C 136.247 59.040,136.804 58.771,137.142 58.686 C 137.481 58.601,137.757 58.440,137.757 58.328 C 137.757 58.215,138.015 58.124,138.330 58.124 C 138.644 58.124,138.902 58.021,138.902 57.895 C 138.902 57.769,139.410 57.666,140.032 57.666 C 140.654 57.666,141.227 57.563,141.304 57.437 C 141.382 57.311,142.006 57.208,142.691 57.208 C 143.376 57.208,143.936 57.311,143.936 57.437 " stroke="none" fill="#ec9c04" fill-rule="evenodd"></path></g></svg>